<svg width="62" height="62" viewBox="0 0 62 62" fill="none" xmlns="http://www.w3.org/2000/svg">
<path d="M55.9453 5.32812H50.1731V3.63281C50.1731 1.62968 48.5435 0 46.5403 0C44.5372 0 42.9075 1.62968 42.9075 3.63281V5.32812H22.5638V3.63281C22.5638 1.62968 20.9341 0 18.9309 0C16.9278 0 15.2981 1.62968 15.2981 3.63281V5.37293C15.1952 5.34447 15.0873 5.32812 14.9753 5.32812H10.1504C6.81189 5.32812 4.09575 8.04426 4.09575 11.3828V32.0091C4.09575 32.6779 4.63801 33.22 5.30669 33.22C5.97537 33.22 6.51763 32.6779 6.51763 32.0091V17.8008H50.1731C50.8418 17.8008 51.3841 17.2586 51.3841 16.5898C51.3841 15.921 50.8418 15.3789 50.1731 15.3789H6.51763V11.3828C6.51763 9.37968 8.14731 7.75 10.1504 7.75H14.9753C15.0873 7.75 15.1952 7.73353 15.2981 7.7052V9.26367C15.2981 11.2668 16.9278 12.8965 18.9309 12.8965C20.9341 12.8965 22.5638 11.2668 22.5638 9.26367V7.75H42.9075V9.26367C42.9075 11.2668 44.5372 12.8965 46.5403 12.8965C48.5435 12.8965 50.1731 11.2668 50.1731 9.26367V7.75H55.9453C57.9484 7.75 59.5781 9.37968 59.5781 11.3828V57.3977C59.5781 58.5999 58.6 59.5781 57.3977 59.5781C56.1954 59.5781 55.2173 58.5999 55.2173 57.3977V54.2651C55.2173 53.5963 54.675 53.0542 54.0064 53.0542H39.9206C39.2519 53.0542 38.7097 53.5963 38.7097 54.2651C38.7097 54.9339 39.2519 55.4761 39.9206 55.4761H52.7954V57.3977C52.7954 58.1862 52.995 58.9287 53.3458 59.5781H4.60156C3.39971 59.5781 2.42188 58.6003 2.42188 57.3984V55.4761H29.5257C30.1944 55.4761 30.7366 54.9339 30.7366 54.2651C30.7366 53.5963 30.1944 53.0542 29.5257 53.0542H17.4265C19.5425 51.2319 20.8861 48.5363 20.8861 45.5312C20.8861 40.056 16.4317 35.6016 10.9564 35.6016C5.48119 35.6016 1.02675 40.056 1.02675 45.5312C1.02675 48.5363 2.37041 51.2319 4.4864 53.0542H1.21094C0.542258 53.0542 0 53.5963 0 54.2651V57.3984C0 59.9357 2.06429 62 4.60156 62H57.3977C59.9354 62 62 59.9355 62 57.3977V11.3828C62 8.04426 59.2839 5.32812 55.9453 5.32812ZM20.1419 9.26367C20.1419 9.93138 19.5987 10.4746 18.9309 10.4746C18.2632 10.4746 17.72 9.93138 17.72 9.26367V3.63281C17.72 2.9651 18.2632 2.42188 18.9309 2.42188C19.5987 2.42188 20.1419 2.9651 20.1419 3.63281V9.26367ZM47.7513 9.26367C47.7513 9.93138 47.208 10.4746 46.5403 10.4746C45.8726 10.4746 45.3294 9.93138 45.3294 9.26367V3.63281C45.3294 2.9651 45.8726 2.42188 46.5403 2.42188C47.208 2.42188 47.7513 2.9651 47.7513 3.63281V9.26367ZM3.44863 45.5312C3.44863 41.3914 6.81661 38.0234 10.9564 38.0234C15.0963 38.0234 18.4643 41.3914 18.4643 45.5312C18.4643 49.6711 15.0963 53.0391 10.9564 53.0391C6.81661 53.0391 3.44863 49.6711 3.44863 45.5312Z" fill="#087792"/>
<path d="M56.7093 15.7337C56.4842 15.5085 56.1717 15.3789 55.8533 15.3789C55.5347 15.3789 55.2224 15.5085 54.9971 15.7337C54.7719 15.9589 54.6423 16.2714 54.6423 16.5898C54.6423 16.9083 54.7718 17.2207 54.9971 17.446C55.2225 17.6712 55.5347 17.8008 55.8533 17.8008C56.1717 17.8008 56.4842 17.6712 56.7093 17.446C56.9345 17.2207 57.0642 16.9083 57.0642 16.5898C57.0642 16.2714 56.9346 15.9589 56.7093 15.7337Z" fill="#087792"/>
<path d="M36.1645 53.4083C35.9394 53.183 35.627 53.0547 35.3085 53.0547C34.9901 53.0547 34.6776 53.183 34.4524 53.4083C34.2272 53.6347 34.0976 53.9459 34.0976 54.2644C34.0976 54.5841 34.227 54.8953 34.4524 55.1218C34.6776 55.347 34.9901 55.4753 35.3085 55.4753C35.627 55.4753 35.9394 55.347 36.1645 55.1218C36.3898 54.8953 36.5195 54.5829 36.5195 54.2644C36.5195 53.9459 36.3899 53.6347 36.1645 53.4083Z" fill="#087792"/>
<path d="M27.3969 36.8125C24.8596 36.8125 22.7953 38.8768 22.7953 41.4141C22.7953 43.9513 24.8596 46.0156 27.3969 46.0156C29.9341 46.0156 31.9984 43.9513 31.9984 41.4141C31.9984 38.8768 29.9341 36.8125 27.3969 36.8125ZM27.3969 43.5938C26.195 43.5938 25.2172 42.6159 25.2172 41.4141C25.2172 40.2122 26.195 39.2344 27.3969 39.2344C28.5987 39.2344 29.5765 40.2122 29.5765 41.4141C29.5765 42.6159 28.5987 43.5938 27.3969 43.5938Z" fill="#087792"/>
<path d="M38.6989 36.8125C36.1616 36.8125 34.0974 38.8768 34.0974 41.4141C34.0974 43.9513 36.1616 46.0156 38.6989 46.0156C41.2362 46.0156 43.3005 43.9513 43.3005 41.4141C43.3005 38.8768 41.2362 36.8125 38.6989 36.8125ZM38.6989 43.5938C37.4971 43.5938 36.5192 42.6159 36.5192 41.4141C36.5192 40.2122 37.4971 39.2344 38.6989 39.2344C39.9008 39.2344 40.8786 40.2122 40.8786 41.4141C40.8786 42.6159 39.9008 43.5938 38.6989 43.5938Z" fill="#087792"/>
<path d="M50.001 36.8125C47.4638 36.8125 45.3995 38.8768 45.3995 41.4141C45.3995 43.9513 47.4638 46.0156 50.001 46.0156C52.5383 46.0156 54.6026 43.9513 54.6026 41.4141C54.6026 38.8768 52.5383 36.8125 50.001 36.8125ZM50.001 43.5938C48.7992 43.5938 47.8214 42.6159 47.8214 41.4141C47.8214 40.2122 48.7992 39.2344 50.001 39.2344C51.2029 39.2344 52.1807 40.2122 52.1807 41.4141C52.1807 42.6159 51.2029 43.5938 50.001 43.5938Z" fill="#087792"/>
<path d="M16.0948 24.2188C13.5576 24.2188 11.4933 26.283 11.4933 28.8203C11.4933 31.3576 13.5576 33.4219 16.0948 33.4219C18.6321 33.4219 20.6964 31.3576 20.6964 28.8203C20.6964 26.283 18.6321 24.2188 16.0948 24.2188ZM16.0948 31C14.893 31 13.9152 30.0222 13.9152 28.8203C13.9152 27.6185 14.893 26.6406 16.0948 26.6406C17.2967 26.6406 18.2745 27.6185 18.2745 28.8203C18.2745 30.0222 17.2967 31 16.0948 31Z" fill="#087792"/>
<path d="M38.6989 24.2188C36.1616 24.2188 34.0974 26.283 34.0974 28.8203C34.0974 31.3576 36.1616 33.4219 38.6989 33.4219C41.2362 33.4219 43.3005 31.3576 43.3005 28.8203C43.3005 26.283 41.2362 24.2188 38.6989 24.2188ZM38.6989 31C37.4971 31 36.5192 30.0222 36.5192 28.8203C36.5192 27.6185 37.4971 26.6406 38.6989 26.6406C39.9008 26.6406 40.8786 27.6185 40.8786 28.8203C40.8786 30.0222 39.9008 31 38.6989 31Z" fill="#087792"/>
<path d="M50.001 24.2188C47.4638 24.2188 45.3995 26.283 45.3995 28.8203C45.3995 31.3576 47.4638 33.4219 50.001 33.4219C52.5383 33.4219 54.6026 31.3576 54.6026 28.8203C54.6026 26.283 52.5383 24.2188 50.001 24.2188ZM50.001 31C48.7992 31 47.8214 30.0222 47.8214 28.8203C47.8214 27.6185 48.7992 26.6406 50.001 26.6406C51.2029 26.6406 52.1807 27.6185 52.1807 28.8203C52.1807 30.0222 51.2029 31 50.001 31Z" fill="#087792"/>
<path d="M27.3969 24.2188C24.8596 24.2188 22.7953 26.283 22.7953 28.8203C22.7953 31.3576 24.8596 33.4219 27.3969 33.4219C29.9341 33.4219 31.9984 31.3576 31.9984 28.8203C31.9984 26.283 29.9341 24.2188 27.3969 24.2188ZM27.3969 31C26.195 31 25.2172 30.0222 25.2172 28.8203C25.2172 27.6185 26.195 26.6406 27.3969 26.6406C28.5987 26.6406 29.5765 27.6185 29.5765 28.8203C29.5765 30.0222 28.5987 31 27.3969 31Z" fill="#087792"/>
<path d="M15.2704 42.5802C14.7974 42.1074 14.0309 42.1074 13.5578 42.5802L9.61427 46.5239L8.26662 45.1762C7.79363 44.7034 7.02711 44.7034 6.55399 45.1762C6.08112 45.6491 6.08112 46.4159 6.55399 46.8889L8.75802 49.0927C8.98519 49.3197 9.29313 49.4474 9.61427 49.4474C9.93541 49.4474 10.2434 49.3197 10.4705 49.0927L15.2704 44.2927C15.7433 43.8199 15.7433 43.0531 15.2704 42.5802Z" fill="#087792"/>
</svg>
