<svg width="65" height="65" viewBox="0 0 65 65" fill="none" xmlns="http://www.w3.org/2000/svg">
<g clip-path="url(#clip0_2811_1109)">
<path d="M64.9977 10.2267C64.961 8.40222 64.2236 6.69331 62.9198 5.41435C61.6141 4.13342 59.8878 3.42773 58.0589 3.42773C57.93 3.42773 57.8015 3.43071 57.6741 3.43716H24.3469C19.5345 3.43716 15.6188 7.87854 15.6188 13.3375V20.8555L9.65599 14.8927L5.5548 10.791C5.3118 10.5485 4.98302 10.4121 4.63984 10.4121C4.29667 10.4121 3.96739 10.5485 3.72489 10.791L3.18385 11.3326L2.2079 10.3566C1.70256 9.85127 0.883319 9.85127 0.377985 10.3566C-0.127348 10.8619 -0.127348 11.6812 0.377985 12.1865L1.35394 13.162L0.812403 13.7035C0.307566 14.2088 0.307566 15.0281 0.812403 15.5334L4.9116 19.6321C4.9126 19.6331 4.91309 19.6341 4.91408 19.6346L6.42364 21.1442L5.39462 22.1737L4.00508 20.7841C3.49975 20.2788 2.681 20.2788 2.17517 20.7841C1.67033 21.2895 1.67033 22.1087 2.17517 22.614L4.47719 24.9156C4.47768 24.9166 4.47867 24.9175 4.47967 24.918C4.48016 24.919 4.48115 24.9195 4.48215 24.9205L9.16603 29.6044C9.41844 29.8573 9.74971 29.9833 10.081 29.9833C10.4118 29.9833 10.743 29.8573 10.9954 29.6044C11.5008 29.0991 11.5008 28.2798 10.9954 27.7745L7.22453 24.0031L8.25355 22.9741L15.6188 30.3398V47.4503H15.352C11.842 47.4503 8.98651 50.6647 8.98651 54.6157C8.98651 58.5666 11.842 61.7811 15.352 61.7811H43.1905C48.0033 61.7811 51.9185 57.3397 51.9185 51.8802V18.4117L51.922 17.3078H57.9552C59.8491 17.3078 61.6949 16.5327 63.02 15.1813C64.3322 13.8419 65.0349 12.0829 64.9977 10.2267V10.2267ZM29.8321 39.777L28.4907 38.9999L29.0392 38.4515L29.8321 39.777ZM26.385 37.4462L24.0344 35.0956L25.117 34.013L27.4676 36.3637L26.385 37.4462ZM22.205 33.2662L7.65895 18.7201L8.74103 17.6376L23.2871 32.1831L22.205 33.2662ZM4.09484 14.0809C4.09633 14.0794 4.09732 14.0784 4.09881 14.0769L4.10228 14.0735L4.63984 13.5359L6.91161 15.8077L5.82904 16.8902L3.55727 14.6185L4.09484 14.0809ZM15.352 59.1934C13.2692 59.1934 11.5742 57.1399 11.5742 54.6157C11.5742 52.0915 13.2692 50.0379 15.352 50.0379H38.7347C37.8153 51.2802 37.2624 52.8765 37.2624 54.6157C37.2624 56.3548 37.8098 57.9512 38.7253 59.1934H15.352ZM49.3309 18.4077V51.8802C49.3309 55.8113 46.7134 59.0278 43.4449 59.187C41.4275 59.0704 39.85 57.0675 39.85 54.6157C39.85 52.0915 41.5446 50.0379 43.6279 50.0379C44.3425 50.0379 44.9217 49.4587 44.9217 48.7441C44.9217 48.0295 44.3425 47.4503 43.6279 47.4503H18.2065V32.9275L21.2901 36.0106L25.4701 40.1906C25.4706 40.1911 25.4711 40.1916 25.4711 40.1916C25.4731 40.1936 25.4746 40.1951 25.4765 40.1971C25.483 40.203 25.4894 40.2095 25.4959 40.2154C25.4994 40.2189 25.5023 40.2219 25.5058 40.2248C25.5108 40.2298 25.5157 40.2343 25.5207 40.2387C25.5251 40.2422 25.5291 40.2457 25.5331 40.2496C25.5375 40.2536 25.5425 40.2576 25.547 40.2615C25.5509 40.265 25.5554 40.2685 25.5594 40.2719C25.5643 40.2759 25.5693 40.2799 25.5737 40.2833C25.5782 40.2868 25.5822 40.2903 25.5866 40.2938C25.5916 40.2977 25.5965 40.3017 25.6015 40.3052C25.606 40.3086 25.6099 40.3116 25.6144 40.3151C25.6204 40.3195 25.6268 40.324 25.6332 40.3285C25.6402 40.3334 25.6466 40.3379 25.6536 40.3429C25.659 40.3463 25.664 40.3498 25.6694 40.3538C25.6739 40.3567 25.6789 40.3597 25.6833 40.3627C25.6883 40.3662 25.6933 40.3691 25.6982 40.3721C25.7032 40.3756 25.7081 40.3786 25.7131 40.3815C25.718 40.3845 25.7235 40.3875 25.7285 40.3905C25.7314 40.392 25.7339 40.3939 25.7369 40.3954L31.0823 43.4904C31.3739 43.6595 31.6908 43.7418 32.0042 43.7418C32.1237 43.7418 32.2432 43.7294 32.3603 43.7056C32.4545 43.7279 32.5532 43.7394 32.6544 43.7394H42.6167C43.3308 43.7394 43.9105 43.1601 43.9105 42.4455C43.9105 41.7309 43.3308 41.1517 42.6167 41.1517H33.6586C33.6303 41.0912 33.5991 41.0312 33.5639 40.9727L30.4213 35.7225C30.3751 35.6416 30.3196 35.5648 30.2546 35.4933C30.2522 35.4904 30.2497 35.4879 30.2472 35.4849C30.2417 35.4795 30.2368 35.474 30.2313 35.4685C30.2279 35.4646 30.2239 35.4611 30.2199 35.4571C30.2174 35.4542 30.2145 35.4512 30.212 35.4487L26.0344 31.2712C26.0334 31.2702 26.0325 31.2692 26.032 31.2687L18.2065 23.4432V13.3375C18.2065 9.30527 20.9608 6.02482 24.3469 6.02482H52.1719C50.4268 7.83638 49.3309 10.4399 49.3309 13.3281V13.335V13.338C49.3309 13.34 49.3318 14.013 49.3333 14.6849C49.3338 15.0211 49.3343 15.3574 49.3353 15.6093L49.3368 15.9173C49.3373 15.952 49.3383 15.9862 49.3398 16.0199L49.3309 18.4077ZM61.1717 13.3698C60.3183 14.2406 59.1757 14.7206 57.9552 14.7206H51.921C51.9205 14.5237 51.92 14.3249 51.92 14.1394C51.92 14.129 51.92 14.1186 51.92 14.1082C51.92 14.0933 51.92 14.0789 51.92 14.064C51.92 14.0447 51.92 14.0254 51.92 14.006C51.92 14.0011 51.92 13.9956 51.92 13.9901C51.9195 13.699 51.919 13.456 51.919 13.3341C51.9205 9.30329 54.6743 6.02482 58.0594 6.02482C58.1055 6.02482 58.1516 6.02234 58.1968 6.01738C60.4874 6.09028 62.3649 7.97375 62.411 10.2782C62.4338 11.4337 61.9939 12.5312 61.1717 13.3698Z" fill="#333333"/>
<path d="M42.6177 35.6416H37.487C36.7724 35.6416 36.1931 36.2208 36.1931 36.9354C36.1931 37.65 36.7724 38.2293 37.487 38.2293H42.6177C43.3318 38.2293 43.9115 37.65 43.9115 36.9354C43.9115 36.2208 43.3318 35.6416 42.6177 35.6416Z" fill="#333333"/>
<path d="M42.6175 30.1321H32.6552C31.9406 30.1321 31.3613 30.7113 31.3613 31.4254C31.3613 32.14 31.9406 32.7192 32.6552 32.7192H42.6175C43.3316 32.7192 43.9114 32.14 43.9114 31.4254C43.9114 30.7113 43.3316 30.1321 42.6175 30.1321Z" fill="#333333"/>
<path d="M42.6177 24.6215H24.8338C24.1192 24.6215 23.54 25.2007 23.54 25.9154C23.54 26.63 24.1192 27.2092 24.8338 27.2092H42.6177C43.3318 27.2092 43.9115 26.63 43.9115 25.9154C43.9115 25.2007 43.3318 24.6215 42.6177 24.6215Z" fill="#333333"/>
<path d="M42.6177 19.1118H39.6418C38.9277 19.1118 38.3479 19.691 38.3479 20.4052C38.3479 21.1198 38.9277 21.699 39.6418 21.699H42.6177C43.3319 21.699 43.9116 21.1198 43.9116 20.4052C43.9116 19.691 43.3319 19.1118 42.6177 19.1118Z" fill="#333333"/>
<path d="M29.3347 21.699C30.0488 21.699 30.6285 21.1198 30.6285 20.4052C30.6285 19.691 30.0488 19.1118 29.3347 19.1118H24.2457C23.5311 19.1118 22.9518 19.691 22.9518 20.4052C22.9518 21.1198 23.5311 21.699 24.2457 21.699H29.3347Z" fill="#333333"/>
<path d="M42.6177 13.6013H24.2457C23.5311 13.6013 22.9518 14.1805 22.9518 14.8951C22.9518 15.6098 23.5311 16.189 24.2457 16.189H42.6177C43.3318 16.189 43.9115 15.6098 43.9115 14.8951C43.9115 14.1805 43.3318 13.6013 42.6177 13.6013Z" fill="#333333"/>
<path d="M34.4147 21.7298C34.5758 21.7298 34.74 21.6995 34.8987 21.6356C35.5612 21.3678 35.8816 20.6135 35.6138 19.9509L35.589 19.8899C35.3212 19.2274 34.5669 18.9075 33.9044 19.1753C33.2424 19.4431 32.922 20.1974 33.1898 20.8599L33.2146 20.9209C33.4179 21.4243 33.9029 21.7298 34.4147 21.7298Z" fill="#333333"/>
</g>
<defs>
<clipPath id="clip0_2811_1109">
<rect width="65" height="65" fill="white"/>
</clipPath>
</defs>
</svg>
