<svg width="62" height="62" viewBox="0 0 62 62" fill="none" xmlns="http://www.w3.org/2000/svg">
<path d="M61.6939 35.6449L54.5021 27.4345C54.2675 27.1669 53.9289 27.0132 53.573 27.0132H47.5843V21.9427C47.5843 21.2606 47.0313 20.7077 46.3493 20.7077H30.8408C30.4268 15.5691 26.1159 11.5134 20.8724 11.5134C15.3561 11.5134 10.8684 16.0012 10.8684 21.5175C10.8684 26.6046 14.686 30.8138 19.6061 31.4384V42.0892H12.4562C11.774 42.0892 11.2211 42.6421 11.2211 43.3243C11.2211 44.0064 11.774 44.5593 12.4562 44.5593H19.6061V45.8144C19.6061 46.4966 20.159 47.0495 20.8412 47.0495H23.4191C23.9622 49.028 25.7755 50.4864 27.9242 50.4864C30.0729 50.4864 31.8861 49.028 32.4293 47.0495H48.9087C49.4519 49.028 51.2651 50.4864 53.4138 50.4864C55.5625 50.4864 57.3757 49.028 57.919 47.0495H60.7649C61.4469 47.0495 61.9999 46.4966 61.9999 45.8144V36.4586C61.9999 36.1593 61.8911 35.8701 61.6939 35.6449ZM13.3386 21.5175C13.3386 17.3632 16.7182 13.9836 20.8724 13.9836C25.0267 13.9836 28.4063 17.3632 28.4063 21.5175C28.4063 25.6717 25.0267 29.0513 20.8724 29.0513C16.7182 29.0513 13.3386 25.6717 13.3386 21.5175ZM27.9242 48.0164C26.7101 48.0164 25.7225 47.0286 25.7225 45.8146C25.7225 44.6005 26.7101 43.6127 27.9242 43.6127C29.1384 43.6127 30.126 44.6005 30.126 45.8146C30.126 47.0286 29.1383 48.0164 27.9242 48.0164ZM32.4291 44.5794C31.886 42.6009 30.0726 41.1425 27.9239 41.1425C25.7754 41.1425 23.9621 42.6009 23.4189 44.5794H22.076V31.4464C26.478 30.9157 30.0075 27.5169 30.7357 23.1779H45.1138V44.5794H32.4291ZM53.4137 48.0164C52.1996 48.0164 51.2119 47.0286 51.2119 45.8146C51.2119 44.6005 52.1996 43.6127 53.4137 43.6127C54.6278 43.6127 55.6155 44.6005 55.6155 45.8146C55.6155 47.0286 54.6279 48.0164 53.4137 48.0164ZM59.5299 44.5794H57.9188C57.3757 42.6009 55.5624 41.1425 53.4137 41.1425C51.265 41.1425 49.4518 42.6009 48.9086 44.5794H47.584V29.4833H53.0127L59.5298 36.923V44.5794H59.5299Z" fill="#087792"/>
<path d="M8.38704 42.0894H7.72805C7.04593 42.0894 6.49301 42.6423 6.49301 43.3244C6.49301 44.0065 7.04593 44.5594 7.72805 44.5594H8.38704C9.06916 44.5594 9.62207 44.0065 9.62207 43.3244C9.62207 42.6423 9.06916 42.0894 8.38704 42.0894Z" fill="#087792"/>
<path d="M7.72797 23.6094H2.80285C2.12072 23.6094 1.56781 24.1623 1.56781 24.8444C1.56781 25.5265 2.12072 26.0794 2.80285 26.0794H7.72797C8.41009 26.0794 8.96301 25.5265 8.96301 24.8444C8.96313 24.1623 8.41009 23.6094 7.72797 23.6094Z" fill="#087792"/>
<path d="M14.4707 32.7244H1.23504C0.552914 32.7244 0 33.2773 0 33.9594C0 34.6415 0.552914 35.1945 1.23504 35.1945H14.4707C15.1528 35.1945 15.7057 34.6415 15.7057 33.9594C15.7057 33.2773 15.1528 32.7244 14.4707 32.7244Z" fill="#087792"/>
<path d="M23.8657 22.764L22.1074 21.0059V15.7358C22.1074 15.0536 21.5545 14.5007 20.8724 14.5007C20.1903 14.5007 19.6374 15.0536 19.6374 15.7358V21.5175C19.6374 21.8451 19.7675 22.1592 19.9991 22.3908L22.1191 24.5108C22.3602 24.752 22.6763 24.8725 22.9924 24.8725C23.3084 24.8725 23.6246 24.7519 23.8657 24.5108C24.348 24.0285 24.348 23.2464 23.8657 22.764Z" fill="#087792"/>
</svg>
