<svg width="180" height="164" viewBox="0 0 180 164" fill="none" xmlns="http://www.w3.org/2000/svg">
<path d="M3.5293 156.486C4.05827 156.486 4.50049 156.338 4.85596 156.042C5.21566 155.741 5.41032 155.354 5.43994 154.88H6.16992C6.14876 155.299 6.01758 155.682 5.77637 156.029C5.53516 156.372 5.21354 156.64 4.81152 156.835C4.41374 157.03 3.98633 157.127 3.5293 157.127C2.62793 157.127 1.91276 156.814 1.38379 156.188C0.859049 155.561 0.59668 154.719 0.59668 153.661V153.433C0.59668 152.756 0.715169 152.157 0.952148 151.636C1.18913 151.116 1.52767 150.714 1.96777 150.43C2.41211 150.147 2.9305 150.005 3.52295 150.005C4.2762 150.005 4.89616 150.229 5.38281 150.678C5.8737 151.126 6.13607 151.717 6.16992 152.449H5.43994C5.40609 151.911 5.21143 151.478 4.85596 151.147C4.50472 150.817 4.06038 150.652 3.52295 150.652C2.8374 150.652 2.3042 150.9 1.92334 151.395C1.54671 151.89 1.3584 152.584 1.3584 153.477V153.699C1.3584 154.575 1.54671 155.259 1.92334 155.75C2.3042 156.24 2.83952 156.486 3.5293 156.486ZM13.7665 150.132H14.5283V157H13.7665V151.357L10.0595 157H9.30414V150.132H10.0595V155.781L13.7665 150.132ZM20.6649 156.486C21.1939 156.486 21.6361 156.338 21.9916 156.042C22.3513 155.741 22.5459 155.354 22.5756 154.88H23.3055C23.2844 155.299 23.1532 155.682 22.912 156.029C22.6708 156.372 22.3492 156.64 21.9471 156.835C21.5494 157.03 21.122 157.127 20.6649 157.127C19.7636 157.127 19.0484 156.814 18.5194 156.188C17.9947 155.561 17.7323 154.719 17.7323 153.661V153.433C17.7323 152.756 17.8508 152.157 18.0878 151.636C18.3248 151.116 18.6633 150.714 19.1034 150.43C19.5477 150.147 20.0661 150.005 20.6586 150.005C21.4118 150.005 22.0318 150.229 22.5184 150.678C23.0093 151.126 23.2717 151.717 23.3055 152.449H22.5756C22.5417 151.911 22.347 151.478 21.9916 151.147C21.6403 150.817 21.196 150.652 20.6586 150.652C19.973 150.652 19.4398 150.9 19.059 151.395C18.6823 151.89 18.494 152.584 18.494 153.477V153.699C18.494 154.575 18.6823 155.259 19.059 155.75C19.4398 156.24 19.9751 156.486 20.6649 156.486ZM31.3211 150.779H28.8201V157H28.0584V150.779H25.6527V150.132H31.3211V150.779ZM36.2835 157.127C35.6995 157.127 35.1705 156.983 34.6965 156.695C34.2268 156.408 33.8608 156.008 33.5984 155.496C33.336 154.979 33.2048 154.402 33.2048 153.763V153.49C33.2048 152.83 33.3318 152.235 33.5857 151.706C33.8438 151.177 34.2014 150.762 34.6585 150.462C35.1155 150.157 35.6106 150.005 36.1438 150.005C36.9775 150.005 37.6376 150.291 38.1243 150.862C38.6152 151.429 38.8606 152.205 38.8606 153.191V153.617H33.9602V153.763C33.9602 154.541 34.1824 155.191 34.6267 155.711C35.0753 156.228 35.6381 156.486 36.3152 156.486C36.7214 156.486 37.079 156.412 37.3879 156.264C37.7011 156.116 37.9846 155.879 38.2385 155.553L38.7146 155.915C38.156 156.723 37.3456 157.127 36.2835 157.127ZM36.1438 150.652C35.5725 150.652 35.0901 150.862 34.6965 151.281C34.3072 151.7 34.0702 152.263 33.9856 152.969H38.1052V152.887C38.0841 152.227 37.8958 151.689 37.5403 151.274C37.1848 150.86 36.7193 150.652 36.1438 150.652ZM45.7019 155.972L48.4313 150.132H49.3708V157H48.6091V151.363L45.9685 157H45.4289L42.7375 151.236V157H41.9821V150.132H42.9787L45.7019 155.972ZM53.8063 152.626H55.7868C56.2946 152.626 56.7389 152.72 57.1198 152.906C57.5049 153.088 57.7947 153.342 57.9894 153.667C58.1883 153.993 58.2877 154.372 58.2877 154.804C58.2877 155.468 58.0592 156.001 57.6022 156.403C57.1494 156.801 56.5358 157 55.7614 157H53.0509V150.132H53.8063V152.626ZM53.8063 153.274V156.359H55.7741C56.32 156.359 56.7474 156.221 57.0563 155.946C57.3694 155.671 57.526 155.295 57.526 154.816C57.526 154.359 57.3737 153.991 57.069 153.712C56.7685 153.428 56.3559 153.282 55.8312 153.274H53.8063ZM60.6173 157H59.8556V150.132H60.6173V157ZM71.7798 150.589C72.6515 150.589 73.3583 150.875 73.8999 151.446C74.4416 152.013 74.7124 152.766 74.7124 153.706V153.871C74.7124 154.493 74.5876 155.053 74.3379 155.553C74.0925 156.048 73.737 156.435 73.2715 156.714C72.8102 156.989 72.2791 157.127 71.6782 157.127C70.7726 157.127 70.0384 156.826 69.4756 156.226C68.917 155.62 68.6377 154.814 68.6377 153.807V153.198C68.6377 151.776 68.9085 150.64 69.4502 149.789C69.9919 148.938 70.7621 148.431 71.7608 148.266C72.3913 148.164 72.8335 148.027 73.0874 147.853C73.3456 147.68 73.4746 147.443 73.4746 147.142H74.1284C74.1284 147.498 74.0544 147.792 73.9063 148.024C73.7582 148.257 73.536 148.445 73.2398 148.589C72.9435 148.729 72.4907 148.847 71.8814 148.945C71.1831 149.055 70.6203 149.353 70.1929 149.84C69.7697 150.322 69.4946 150.97 69.3677 151.782C69.6385 151.427 69.9771 151.139 70.3833 150.919C70.7938 150.699 71.2593 150.589 71.7798 150.589ZM69.3994 153.712V153.871C69.3994 154.645 69.6089 155.276 70.0278 155.762C70.4468 156.245 70.9969 156.486 71.6782 156.486C72.3638 156.486 72.9139 156.243 73.3286 155.756C73.7433 155.265 73.9507 154.622 73.9507 153.826V153.661C73.9507 152.946 73.7391 152.362 73.3159 151.909C72.897 151.456 72.3469 151.23 71.6655 151.23C70.9842 151.23 70.4362 151.461 70.0215 151.922C69.6068 152.379 69.3994 152.976 69.3994 153.712ZM80.3921 157.127C79.8081 157.127 79.2791 156.983 78.8051 156.695C78.3354 156.408 77.9694 156.008 77.707 155.496C77.4446 154.979 77.3134 154.402 77.3134 153.763V153.49C77.3134 152.83 77.4404 152.235 77.6943 151.706C77.9524 151.177 78.31 150.762 78.7671 150.462C79.2241 150.157 79.7192 150.005 80.2524 150.005C81.0861 150.005 81.7462 150.291 82.2329 150.862C82.7238 151.429 82.9692 152.205 82.9692 153.191V153.617H78.0688V153.763C78.0688 154.541 78.291 155.191 78.7353 155.711C79.1839 156.228 79.7467 156.486 80.4238 156.486C80.83 156.486 81.1876 156.412 81.4965 156.264C81.8097 156.116 82.0932 155.879 82.3471 155.553L82.8232 155.915C82.2646 156.723 81.4542 157.127 80.3921 157.127ZM80.2524 150.652C79.6811 150.652 79.1987 150.862 78.8051 151.281C78.4158 151.7 78.1788 152.263 78.0942 152.969H82.2138V152.887C82.1927 152.227 82.0044 151.689 81.6489 151.274C81.2934 150.86 80.8279 150.652 80.2524 150.652ZM90.0326 151.947C90.0326 151.533 89.8782 151.213 89.5692 150.989C89.2603 150.764 88.835 150.652 88.2934 150.652C87.8025 150.652 87.3814 150.779 87.0302 151.033C86.6832 151.283 86.5097 151.6 86.5097 151.985H85.7543C85.7543 151.414 85.9976 150.942 86.4843 150.57C86.9752 150.197 87.5782 150.011 88.2934 150.011C89.0805 150.011 89.6941 150.181 90.1342 150.519C90.5743 150.858 90.7943 151.338 90.7943 151.96C90.7943 152.29 90.6928 152.588 90.4896 152.855C90.2865 153.122 89.9903 153.329 89.601 153.477C90.4812 153.718 90.9213 154.264 90.9213 155.115C90.9213 155.733 90.6822 156.221 90.204 156.581C89.7258 156.941 89.091 157.121 88.2997 157.121C87.5338 157.121 86.899 156.928 86.3954 156.543C85.8918 156.158 85.64 155.654 85.64 155.032H86.4018C86.4018 155.447 86.5837 155.794 86.9477 156.073C87.3158 156.348 87.7665 156.486 88.2997 156.486C88.8795 156.486 89.3323 156.365 89.6581 156.124C89.9882 155.879 90.1532 155.546 90.1532 155.127C90.1532 154.666 90.003 154.334 89.7025 154.131C89.4021 153.928 88.9429 153.826 88.3251 153.826H87.2777V153.166H88.452C89.5058 153.141 90.0326 152.734 90.0326 151.947ZM93.7381 153.464C93.7381 152.804 93.8651 152.21 94.119 151.681C94.3771 151.152 94.7389 150.741 95.2044 150.449C95.6742 150.153 96.2052 150.005 96.7977 150.005C97.7118 150.005 98.4523 150.326 99.0194 150.97C99.5864 151.609 99.87 152.457 99.87 153.515V153.674C99.87 154.338 99.7409 154.937 99.4827 155.47C99.2288 155.999 98.8691 156.408 98.4036 156.695C97.9382 156.983 97.4071 157.127 96.8104 157.127C95.9006 157.127 95.16 156.807 94.5887 156.168C94.0216 155.525 93.7381 154.675 93.7381 153.617V153.464ZM94.4998 153.674C94.4998 154.495 94.7114 155.17 95.1346 155.699C95.562 156.223 96.1206 156.486 96.8104 156.486C97.4959 156.486 98.0503 156.223 98.4735 155.699C98.9009 155.17 99.1146 154.474 99.1146 153.61V153.464C99.1146 152.94 99.0173 152.459 98.8226 152.023C98.6279 151.588 98.355 151.251 98.0037 151.014C97.6525 150.773 97.2505 150.652 96.7977 150.652C96.1206 150.652 95.5684 150.919 95.141 151.452C94.7135 151.981 94.4998 152.675 94.4998 153.534V153.674ZM108.279 157H107.517V150.786H103.817V157H103.055V150.132H108.279V157ZM116.212 157C116.136 156.784 116.087 156.465 116.066 156.042C115.8 156.389 115.459 156.657 115.044 156.848C114.634 157.034 114.198 157.127 113.737 157.127C113.076 157.127 112.541 156.943 112.131 156.575C111.724 156.207 111.521 155.741 111.521 155.178C111.521 154.51 111.798 153.981 112.353 153.591C112.911 153.202 113.688 153.007 114.682 153.007H116.06V152.227C116.06 151.736 115.907 151.351 115.603 151.071C115.302 150.788 114.862 150.646 114.282 150.646C113.753 150.646 113.315 150.781 112.968 151.052C112.621 151.323 112.448 151.649 112.448 152.03L111.686 152.023C111.686 151.478 111.94 151.006 112.448 150.608C112.956 150.206 113.58 150.005 114.321 150.005C115.086 150.005 115.69 150.197 116.13 150.583C116.574 150.963 116.802 151.497 116.815 152.182V155.432C116.815 156.097 116.885 156.594 117.025 156.924V157H116.212ZM113.825 156.454C114.333 156.454 114.786 156.331 115.184 156.086C115.586 155.84 115.878 155.513 116.06 155.102V153.591H114.701C113.944 153.6 113.351 153.739 112.924 154.01C112.497 154.277 112.283 154.645 112.283 155.115C112.283 155.5 112.425 155.819 112.708 156.073C112.996 156.327 113.368 156.454 113.825 156.454ZM122.945 156.486C123.474 156.486 123.917 156.338 124.272 156.042C124.632 155.741 124.826 155.354 124.856 154.88H125.586C125.565 155.299 125.434 155.682 125.193 156.029C124.951 156.372 124.63 156.64 124.228 156.835C123.83 157.03 123.402 157.127 122.945 157.127C122.044 157.127 121.329 156.814 120.8 156.188C120.275 155.561 120.013 154.719 120.013 153.661V153.433C120.013 152.756 120.131 152.157 120.368 151.636C120.605 151.116 120.944 150.714 121.384 150.43C121.828 150.147 122.347 150.005 122.939 150.005C123.692 150.005 124.312 150.229 124.799 150.678C125.29 151.126 125.552 151.717 125.586 152.449H124.856C124.822 151.911 124.628 151.478 124.272 151.147C123.921 150.817 123.477 150.652 122.939 150.652C122.254 150.652 121.72 150.9 121.34 151.395C120.963 151.89 120.775 152.584 120.775 153.477V153.699C120.775 154.575 120.963 155.259 121.34 155.75C121.72 156.24 122.256 156.486 122.945 156.486ZM133.944 157H133.183V153.852H129.482V157H128.72V150.132H129.482V153.21H133.183V150.132H133.944V157ZM137.123 153.464C137.123 152.804 137.25 152.21 137.504 151.681C137.762 151.152 138.124 150.741 138.589 150.449C139.059 150.153 139.59 150.005 140.183 150.005C141.097 150.005 141.837 150.326 142.404 150.97C142.971 151.609 143.255 152.457 143.255 153.515V153.674C143.255 154.338 143.126 154.937 142.868 155.47C142.614 155.999 142.254 156.408 141.789 156.695C141.323 156.983 140.792 157.127 140.195 157.127C139.286 157.127 138.545 156.807 137.974 156.168C137.407 155.525 137.123 154.675 137.123 153.617V153.464ZM137.885 153.674C137.885 154.495 138.096 155.17 138.52 155.699C138.947 156.223 139.506 156.486 140.195 156.486C140.881 156.486 141.435 156.223 141.858 155.699C142.286 155.17 142.5 154.474 142.5 153.61V153.464C142.5 152.94 142.402 152.459 142.208 152.023C142.013 151.588 141.74 151.251 141.389 151.014C141.037 150.773 140.635 150.652 140.183 150.652C139.506 150.652 138.953 150.919 138.526 151.452C138.099 151.981 137.885 152.675 137.885 153.534V153.674ZM148.928 156.486C149.457 156.486 149.899 156.338 150.255 156.042C150.615 155.741 150.809 155.354 150.839 154.88H151.569C151.548 155.299 151.416 155.682 151.175 156.029C150.934 156.372 150.612 156.64 150.21 156.835C149.813 157.03 149.385 157.127 148.928 157.127C148.027 157.127 147.312 156.814 146.783 156.188C146.258 155.561 145.996 154.719 145.996 153.661V153.433C145.996 152.756 146.114 152.157 146.351 151.636C146.588 151.116 146.927 150.714 147.367 150.43C147.811 150.147 148.329 150.005 148.922 150.005C149.675 150.005 150.295 150.229 150.782 150.678C151.273 151.126 151.535 151.717 151.569 152.449H150.839C150.805 151.911 150.61 151.478 150.255 151.147C149.904 150.817 149.459 150.652 148.922 150.652C148.236 150.652 147.703 150.9 147.322 151.395C146.946 151.89 146.757 152.584 146.757 153.477V153.699C146.757 154.575 146.946 155.259 147.322 155.75C147.703 156.24 148.238 156.486 148.928 156.486ZM159.584 150.779H157.083V157H156.322V150.779H153.916V150.132H159.584V150.779ZM166.908 150.132H167.67V157H166.908V151.357L163.201 157H162.446V150.132H163.201V155.781L166.908 150.132Z" fill="white"/>
<path d="M8.54492 130.125H6.27539V138H1.47656V118.094H6.27539V125.791H8.12109L11.9492 118.094H17.7598L12.291 127.281L18.4434 138H12.7695L8.54492 130.125ZM26.9516 131.246V138H22.1528V118.094H30.0962C31.6183 118.094 32.9627 118.376 34.1294 118.941C35.3052 119.497 36.2121 120.295 36.8501 121.334C37.4972 122.364 37.8208 123.535 37.8208 124.848C37.8208 126.789 37.1235 128.343 35.729 129.51C34.3436 130.667 32.4386 131.246 30.0141 131.246H26.9516ZM26.9516 127.541H30.0962C31.0259 127.541 31.7322 127.309 32.2153 126.844C32.7075 126.379 32.9536 125.723 32.9536 124.875C32.9536 123.945 32.7029 123.202 32.2016 122.646C31.7003 122.09 31.0167 121.808 30.1509 121.799H26.9516V127.541ZM47.7099 124.943H50.1845C51.7614 124.943 53.1559 125.212 54.3681 125.75C55.5804 126.288 56.5101 127.049 57.1572 128.033C57.8134 129.008 58.1416 130.13 58.1416 131.396C58.1416 133.356 57.4124 134.947 55.9541 136.168C54.5048 137.389 52.5543 138 50.1025 138H42.8974V118.094H47.7099V124.943ZM64.3759 138H59.5908V118.094H64.3759V138ZM47.7099 128.635V134.309H50.1709C51.1461 134.309 51.9163 134.035 52.4814 133.488C53.0556 132.941 53.3427 132.235 53.3427 131.369C53.3427 130.549 53.0602 129.888 52.4951 129.387C51.93 128.885 51.1461 128.635 50.1435 128.635H47.7099ZM76.1518 118.094L80.5952 131.943L85.0248 118.094H91.3412V138H86.5287V133.352L86.9936 123.836L82.1811 138H79.0092L74.183 123.822L74.6479 133.352V138H69.8491V118.094H76.1518ZM111.443 119.529H104.621V138H102.939V119.529H96.1308V118.094H111.443V119.529ZM126.842 132.422H117.805L115.754 138H113.991L121.524 118.094H123.123L130.657 138H128.907L126.842 132.422ZM118.325 130.986H126.309L122.317 120.145L118.325 130.986ZM136.116 138V118.094H141.995C144.128 118.094 145.746 118.536 146.849 119.42C147.951 120.295 148.503 121.589 148.503 123.303C148.503 124.333 148.22 125.23 147.655 125.996C147.099 126.753 146.334 127.295 145.358 127.623C146.516 127.878 147.446 128.448 148.147 129.332C148.858 130.216 149.214 131.237 149.214 132.395C149.214 134.154 148.644 135.53 147.505 136.523C146.375 137.508 144.798 138 142.774 138H136.116ZM137.798 128.43V136.578H142.843C144.283 136.578 145.422 136.214 146.261 135.484C147.108 134.746 147.532 133.725 147.532 132.422C147.532 131.191 147.127 130.221 146.315 129.51C145.513 128.79 144.401 128.43 142.979 128.43H137.798ZM137.798 127.021H142.391C143.795 126.994 144.88 126.666 145.645 126.037C146.42 125.399 146.807 124.474 146.807 123.262C146.807 121.986 146.406 121.047 145.604 120.445C144.811 119.835 143.608 119.529 141.995 119.529H137.798V127.021ZM157.49 129.893V138H155.808V118.094H162.589C164.658 118.094 166.29 118.622 167.484 119.68C168.687 120.737 169.288 122.191 169.288 124.041C169.288 125.91 168.71 127.354 167.552 128.375C166.404 129.387 164.736 129.893 162.548 129.893H157.49ZM157.49 128.471H162.589C164.221 128.471 165.465 128.083 166.322 127.309C167.178 126.534 167.607 125.454 167.607 124.068C167.607 122.692 167.178 121.598 166.322 120.787C165.474 119.967 164.266 119.548 162.699 119.529H157.49V128.471Z" fill="white"/>
<path d="M39.2887 69.9739L39.0416 69.8151H38.7479H1.86852L38.0606 15.527L63.3882 6.43504L127.446 40.4248L80.3778 104.489L60.3736 101.989L58.4488 82.7408L58.4008 82.2602L57.9945 81.9991L39.2887 69.9739Z" stroke="white" stroke-width="2"/>
<path d="M130.083 36.839L109.075 25.4346L155.779 2.68137C151.29 8.76119 145.521 16.5404 140.529 23.2002C137.557 27.1659 134.863 30.7315 132.88 33.3043C131.887 34.5918 131.078 35.6247 130.501 36.3334C130.341 36.5301 130.202 36.6988 130.083 36.839Z" stroke="white" stroke-width="2"/>
<mask id="path-5-inside-1_398_7739" fill="white">
<path d="M84.8445 80.168L82.1723 54.7815L90.8571 60.7941L84.8445 80.168Z"/>
</mask>
<path d="M82.1723 54.7815L83.3107 53.1371L79.727 50.6561L80.1833 54.9909L82.1723 54.7815ZM84.8445 80.168L82.8555 80.3774L86.7547 80.7608L84.8445 80.168ZM90.8571 60.7941L92.7673 61.3869L93.2023 59.9851L91.9956 59.1497L90.8571 60.7941ZM80.1833 54.9909L82.8555 80.3774L86.8336 79.9587L84.1613 54.5721L80.1833 54.9909ZM86.7547 80.7608L92.7673 61.3869L88.947 60.2013L82.9344 79.5753L86.7547 80.7608ZM91.9956 59.1497L83.3107 53.1371L81.0339 56.4259L89.7187 62.4385L91.9956 59.1497Z" fill="white" mask="url(#path-5-inside-1_398_7739)"/>
</svg>
