<svg width="65" height="65" viewBox="0 0 65 65" fill="none" xmlns="http://www.w3.org/2000/svg">
<path d="M60.7363 22.4236C59.4357 20.4053 57.2799 19.152 54.9045 19.0097C55.6018 18.0497 56.0151 16.8695 56.0151 15.595V11.9507C56.0151 11.8974 56.0125 11.8445 56.011 11.7908C56.0117 11.7696 56.0147 11.7491 56.0143 11.7275C55.9666 8.64112 53.4161 6.13013 50.3297 6.13013H49.9467C46.8111 6.13013 44.2602 8.68099 44.2602 11.8166V11.9164C44.2602 11.928 44.2598 11.9392 44.2598 11.9507V15.595C44.2598 16.8765 44.6772 18.0627 45.3816 19.0249C43.6297 19.1755 42.0026 19.9286 40.7449 21.1864L37.2177 24.7136C36.835 25.0967 36.2298 25.1608 35.7751 24.8671L31.0863 21.6462C31.08 21.6414 31.0732 21.6369 31.0662 21.6328C29.95 20.8987 28.5734 20.69 27.2892 21.0604L27.2639 21.0679C26.1139 21.3992 25.3112 22.4668 25.3112 23.6634C25.3112 25.1802 26.0602 26.5929 27.315 27.4437L34.8815 32.6736C34.8848 32.6759 34.8878 32.6777 34.8912 32.68C35.1971 32.8868 35.5273 33.037 35.8686 33.1372C35.9726 33.192 36.0855 33.233 36.2063 33.255C37.3265 33.4622 38.4799 33.116 39.3001 32.3308L42.0511 29.8753L42.0723 35.0277L42.0712 40.2759H27.6984V36.4152C27.6984 33.7428 26.9334 31.1435 25.4859 28.8975C24.1865 26.881 22.0336 25.6281 19.6605 25.4835C20.3704 24.5191 20.7908 23.3288 20.7908 22.042V18.3977C20.7908 18.3445 20.7886 18.2915 20.7871 18.2383C20.7874 18.217 20.7904 18.1961 20.7897 18.1742C20.7423 15.0881 18.1922 12.5768 15.1055 12.5768H14.7228C11.5872 12.5768 9.03632 15.1277 9.03632 18.2628V18.3635C9.03632 18.3746 9.0352 18.3862 9.0352 18.3977V22.042C9.0352 23.3266 9.45482 24.5146 10.1621 25.4787C7.74468 25.5897 5.54374 26.849 4.22378 28.8975C2.77674 31.1431 2.01129 33.7428 2.01129 36.4148V41.4688C2.01129 42.128 2.54569 42.6628 3.20492 42.6628H42.0708L42.0675 57.1727C42.0675 57.2126 42.0693 57.2521 42.0738 57.2912C42.0768 57.3225 42.082 57.3527 42.0872 57.3833C42.0887 57.3911 42.0895 57.3993 42.091 57.4075C42.098 57.4429 42.107 57.4776 42.1174 57.5119C42.1178 57.5145 42.1182 57.5174 42.1193 57.5201C42.1301 57.5551 42.1424 57.589 42.1558 57.6218C42.1569 57.6248 42.1577 57.6274 42.1588 57.6296C42.1718 57.662 42.1867 57.6926 42.2024 57.7228C42.2046 57.7269 42.2065 57.7317 42.2091 57.7358C42.224 57.7638 42.2408 57.7906 42.2572 57.8171C42.2616 57.823 42.2646 57.8301 42.2691 57.8361C42.2862 57.8618 42.3049 57.886 42.3239 57.9102C42.3291 57.9166 42.3336 57.9236 42.3388 57.93C42.3883 57.9907 42.4439 58.0459 42.5039 58.0951C42.5113 58.101 42.5195 58.1066 42.5273 58.113C42.5501 58.1308 42.5736 58.1487 42.5978 58.1648C42.6045 58.1696 42.6127 58.1737 42.6201 58.1785C42.6455 58.1946 42.6712 58.211 42.698 58.2255C42.7036 58.2281 42.7092 58.2303 42.7148 58.2333C42.7435 58.2486 42.7733 58.2624 42.8035 58.2754C42.808 58.2769 42.8121 58.278 42.8158 58.2799C42.8478 58.2926 42.8803 58.3045 42.9134 58.3146C42.9179 58.3161 42.9227 58.3168 42.9268 58.3183C42.96 58.3276 42.9924 58.3366 43.0263 58.3429C43.0364 58.3451 43.0468 58.3462 43.0569 58.3477C43.0852 58.3526 43.1132 58.3574 43.1422 58.3608C43.1773 58.3638 43.213 58.3656 43.2496 58.3656C43.2533 58.3656 43.2574 58.3667 43.2611 58.3667H56.5386C57.1979 58.3667 57.7327 57.832 57.7327 57.1727V43.912L58.5704 43.3876C61.3121 41.6712 62.9488 38.7152 62.9488 35.4801V29.9413C62.9488 27.2693 62.1837 24.6696 60.7363 22.4236V22.4236ZM35.2295 30.0117L28.6677 25.4768C28.664 25.4742 28.661 25.472 28.6577 25.4697C28.0569 25.0632 27.3246 24.0372 27.8371 23.5244C28.3502 23.0113 29.214 23.2751 29.7455 23.6213L34.435 26.843C34.4417 26.8471 34.4481 26.8519 34.4551 26.856C34.7007 27.0178 34.9608 27.143 35.2295 27.2365V30.0117ZM11.4236 18.3631C11.4422 16.4856 12.9746 14.9641 14.8562 14.9641H14.9698C16.4962 14.9641 17.792 15.965 18.2381 17.3446C16.8797 17.1847 15.5847 17.6822 14.2219 18.2062C13.9756 18.3012 13.724 18.3977 13.4661 18.4932C13.1796 18.5986 12.5088 18.6094 11.4236 18.3828V18.3631ZM11.4228 20.8126C11.9591 20.9043 12.4447 20.9516 12.8792 20.9516C13.4274 20.9516 13.8966 20.8786 14.2916 20.7332C14.5603 20.6341 14.8226 20.5331 15.0786 20.4347C16.3498 19.9454 17.3541 19.5597 18.1747 19.7527C18.25 19.7703 18.3264 19.7829 18.4039 19.7904V22.0413C18.4039 23.8695 16.9677 25.368 15.1644 25.4686H14.6624C12.8587 25.368 11.4228 23.8695 11.4228 22.0413V20.8126ZM25.3112 40.2755H22.9336V32.604C22.9336 31.9447 22.3992 31.4103 21.74 31.4103H19.3486C18.6894 31.4103 18.1553 31.9447 18.1553 32.604C18.1553 33.2632 18.6894 33.7972 19.3486 33.7972H20.5467V40.176H9.28004V33.7894L10.2851 33.7827C10.9443 33.7782 11.4754 33.2405 11.4705 32.5808C11.4664 31.9216 10.9246 31.3921 10.2691 31.3954L8.07821 31.4103C7.42195 31.4144 6.8924 31.9477 6.8924 32.604V40.2755H4.39893V36.4148C4.39893 34.2027 5.03208 32.0502 6.23056 30.1906C7.17227 28.7287 8.77285 27.8566 10.5113 27.8566H14.627C14.703 27.8592 14.7794 27.8622 14.8565 27.8622H14.9698C15.0473 27.8622 15.1234 27.8592 15.1998 27.8566H19.1984C20.9372 27.8566 22.5378 28.7287 23.4795 30.1906C24.678 32.0502 25.3115 34.2027 25.3115 36.4148V40.2755H25.3112ZM46.6479 11.9164C46.6665 10.039 48.1989 8.51739 50.0804 8.51739H50.1945C51.7209 8.51739 53.0163 9.51836 53.4623 10.8983C52.1044 10.7388 50.809 11.236 49.4462 11.7599C49.2002 11.8546 48.9483 11.9515 48.6904 12.0465C48.4038 12.1523 47.733 12.1628 46.6479 11.9369V11.9164ZM46.6471 14.3667C47.183 14.458 47.6689 14.5057 48.1031 14.5057C48.6513 14.5057 49.1205 14.4326 49.5155 14.2866C49.7849 14.1874 50.0469 14.0868 50.3037 13.9881C51.5744 13.4995 52.578 13.1134 53.3986 13.3061C53.4739 13.3236 53.5507 13.3363 53.6278 13.3441V15.595C53.6278 17.3286 52.3358 18.7656 50.6644 18.9959H49.6105C47.9391 18.7656 46.6471 17.3286 46.6471 15.595V14.3667ZM44.4562 50.5286L44.46 36.2162H55.345V55.9795H51.1876V40.2342C51.1876 39.5749 50.6528 39.0406 49.9936 39.0406C49.3344 39.0406 48.8 39.5749 48.8 40.2342V55.9795H44.4555L44.4562 50.5286ZM57.7327 41.0723V36.2162H60.5224C60.3189 38.16 59.315 39.9118 57.7327 41.0723ZM60.5354 33.8293H57.7327V28.217C57.7327 27.5578 57.1979 27.0234 56.5386 27.0234C56.1992 27.0234 55.8932 27.1657 55.6763 27.393C55.4557 27.6096 55.3193 27.9107 55.3193 28.2438V33.8293H44.46L44.4615 29.0771C44.4689 28.2554 43.9878 27.5156 43.2324 27.1907C42.4837 26.868 41.624 27.0211 41.0334 27.5794L37.7189 30.5383C37.7059 30.5495 37.6936 30.561 37.6813 30.573C37.6604 30.5934 37.6384 30.6121 37.6164 30.6307V27.2429C38.086 27.0677 38.5168 26.7919 38.8797 26.429L42.407 22.9014C43.3688 21.9395 44.6478 21.41 46.0084 21.41H48.7523V25.7511C48.7523 26.4103 49.2863 26.9447 49.9455 26.9447C50.6048 26.9447 51.1395 26.4103 51.1395 25.7511V21.41H54.4223C56.1611 21.41 57.7613 22.2824 58.7034 23.7439C59.9019 25.6035 60.5354 27.756 60.5354 29.9681V33.8293Z" fill="#333333"/>
<path d="M50.6838 29.3912L50.6536 29.3681C50.1289 28.9686 49.3802 29.0704 48.9811 29.5954C48.5816 30.1198 48.6833 30.8688 49.2076 31.2679L49.2386 31.291C49.4543 31.4554 49.7085 31.5348 49.96 31.5348C50.3204 31.5348 50.6759 31.3727 50.9107 31.0641C51.3106 30.5394 51.2088 29.7907 50.6838 29.3912Z" fill="#333333"/>
<path d="M15.5322 31.6593L15.5012 31.6358C14.9765 31.2371 14.2279 31.3384 13.8287 31.8631C13.4296 32.3875 13.531 33.1365 14.0557 33.536L14.0863 33.5591C14.3024 33.7235 14.5562 33.8028 14.8081 33.8028C15.1681 33.8028 15.5244 33.6407 15.7591 33.3318C16.1582 32.8075 16.0565 32.0584 15.5322 31.6593Z" fill="#333333"/>
</svg>
