<svg width="1440" height="579" viewBox="0 0 1440 579" fill="none" xmlns="http://www.w3.org/2000/svg">
<rect y="1" width="1440" height="578"/>
<path d="M875 1H1440V579H755L875 1Z" fill="#087792"/>
<path d="M948.648 464.781L952.75 475.68L956.842 464.781H960.035V479H957.574V474.312L957.818 468.043L953.619 479H951.852L947.662 468.053L947.906 474.312V479H945.445V464.781H948.648ZM965.289 471.793H967.613C968.479 471.793 969.234 471.943 969.879 472.242C970.523 472.542 971.012 472.962 971.344 473.502C971.682 474.042 971.852 474.671 971.852 475.387C971.852 476.474 971.467 477.346 970.699 478.004C969.931 478.661 968.909 478.993 967.633 479H962.916V468.434H965.289V471.793ZM975.982 479H973.609V468.434H975.982V479ZM965.289 473.697V477.105H967.604C968.183 477.105 968.639 476.962 968.971 476.676C969.309 476.383 969.479 475.969 969.479 475.436C969.479 474.902 969.312 474.482 968.98 474.176C968.655 473.863 968.212 473.704 967.652 473.697H965.289ZM993.062 473.824C993.062 475.458 992.691 476.764 991.949 477.74C991.207 478.71 990.211 479.195 988.961 479.195C987.802 479.195 986.874 478.814 986.178 478.053V483.062H983.805V468.434H985.992L986.09 469.508C986.786 468.661 987.734 468.238 988.932 468.238C990.221 468.238 991.23 468.72 991.959 469.684C992.695 470.641 993.062 471.972 993.062 473.678V473.824ZM990.699 473.619C990.699 472.564 990.488 471.728 990.064 471.109C989.648 470.491 989.049 470.182 988.268 470.182C987.298 470.182 986.601 470.582 986.178 471.383V476.07C986.607 476.891 987.311 477.301 988.287 477.301C989.042 477.301 989.632 476.998 990.055 476.393C990.484 475.781 990.699 474.856 990.699 473.619ZM1001.39 479C1001.29 478.798 1001.2 478.469 1001.12 478.014C1000.36 478.801 999.439 479.195 998.346 479.195C997.285 479.195 996.419 478.893 995.748 478.287C995.077 477.682 994.742 476.933 994.742 476.041C994.742 474.915 995.159 474.052 995.992 473.453C996.832 472.848 998.03 472.545 999.586 472.545H1001.04V471.852C1001.04 471.305 1000.89 470.868 1000.58 470.543C1000.28 470.211 999.811 470.045 999.186 470.045C998.645 470.045 998.202 470.182 997.857 470.455C997.512 470.722 997.34 471.064 997.34 471.48H994.967C994.967 470.901 995.159 470.361 995.543 469.859C995.927 469.352 996.448 468.954 997.105 468.668C997.77 468.382 998.508 468.238 999.322 468.238C1000.56 468.238 1001.55 468.551 1002.28 469.176C1003.02 469.794 1003.39 470.667 1003.41 471.793V476.559C1003.41 477.509 1003.55 478.268 1003.81 478.834V479H1001.39ZM998.785 477.291C999.254 477.291 999.693 477.177 1000.1 476.949C1000.52 476.721 1000.83 476.415 1001.04 476.031V474.039H999.762C998.883 474.039 998.222 474.192 997.779 474.498C997.337 474.804 997.115 475.237 997.115 475.797C997.115 476.253 997.265 476.617 997.564 476.891C997.87 477.158 998.277 477.291 998.785 477.291ZM1010.88 469.02C1012.2 469.02 1013.27 469.465 1014.07 470.357C1014.87 471.243 1015.27 472.447 1015.27 473.971V474.088C1015.27 475.611 1014.83 476.845 1013.96 477.789C1013.1 478.733 1011.92 479.205 1010.43 479.205C1008.97 479.205 1007.8 478.723 1006.91 477.76C1006.02 476.796 1005.57 475.481 1005.57 473.814V473.131C1005.57 470.852 1005.98 469.049 1006.78 467.721C1007.59 466.393 1008.79 465.562 1010.4 465.23C1011.29 465.048 1011.87 464.856 1012.13 464.654C1012.4 464.446 1012.54 464.166 1012.54 463.814H1014.45C1014.45 464.472 1014.34 465.006 1014.13 465.416C1013.91 465.826 1013.58 466.161 1013.14 466.422C1012.7 466.676 1011.94 466.917 1010.86 467.145C1009.87 467.353 1009.11 467.724 1008.59 468.258C1008.08 468.792 1007.73 469.531 1007.55 470.475C1008.5 469.505 1009.61 469.02 1010.88 469.02ZM1010.41 470.924C1009.64 470.924 1009.04 471.184 1008.6 471.705C1008.16 472.219 1007.95 473.014 1007.95 474.088C1007.95 475.104 1008.16 475.895 1008.59 476.461C1009.02 477.027 1009.63 477.311 1010.43 477.311C1011.21 477.311 1011.82 477.027 1012.25 476.461C1012.69 475.888 1012.91 475.029 1012.91 473.883C1012.91 472.971 1012.69 472.252 1012.25 471.725C1011.82 471.191 1011.21 470.924 1010.41 470.924ZM1016.69 473.619C1016.69 472.584 1016.89 471.653 1017.3 470.826C1017.71 469.993 1018.29 469.355 1019.03 468.912C1019.77 468.463 1020.62 468.238 1021.59 468.238C1023.01 468.238 1024.17 468.697 1025.05 469.615C1025.95 470.533 1026.43 471.751 1026.5 473.268L1026.51 473.824C1026.51 474.866 1026.31 475.797 1025.9 476.617C1025.51 477.438 1024.93 478.072 1024.19 478.521C1023.44 478.971 1022.58 479.195 1021.61 479.195C1020.12 479.195 1018.92 478.701 1018.02 477.711C1017.13 476.715 1016.69 475.39 1016.69 473.736V473.619ZM1019.06 473.824C1019.06 474.911 1019.28 475.764 1019.73 476.383C1020.18 476.995 1020.81 477.301 1021.61 477.301C1022.41 477.301 1023.03 476.988 1023.47 476.363C1023.92 475.738 1024.15 474.824 1024.15 473.619C1024.15 472.551 1023.92 471.705 1023.45 471.08C1023 470.455 1022.38 470.143 1021.59 470.143C1020.81 470.143 1020.2 470.452 1019.74 471.07C1019.29 471.682 1019.06 472.6 1019.06 473.824ZM1036.54 470.318H1033.11V479H1030.74V470.318H1027.35V468.434H1036.54V470.318ZM1044.28 479C1044.18 478.798 1044.09 478.469 1044.01 478.014C1043.25 478.801 1042.33 479.195 1041.24 479.195C1040.18 479.195 1039.31 478.893 1038.64 478.287C1037.97 477.682 1037.63 476.933 1037.63 476.041C1037.63 474.915 1038.05 474.052 1038.88 473.453C1039.72 472.848 1040.92 472.545 1042.48 472.545H1043.93V471.852C1043.93 471.305 1043.78 470.868 1043.47 470.543C1043.17 470.211 1042.7 470.045 1042.08 470.045C1041.54 470.045 1041.09 470.182 1040.75 470.455C1040.4 470.722 1040.23 471.064 1040.23 471.48H1037.86C1037.86 470.901 1038.05 470.361 1038.43 469.859C1038.82 469.352 1039.34 468.954 1040 468.668C1040.66 468.382 1041.4 468.238 1042.21 468.238C1043.45 468.238 1044.44 468.551 1045.17 469.176C1045.91 469.794 1046.29 470.667 1046.3 471.793V476.559C1046.3 477.509 1046.44 478.268 1046.71 478.834V479H1044.28ZM1041.68 477.291C1042.14 477.291 1042.58 477.177 1042.99 476.949C1043.41 476.721 1043.72 476.415 1043.93 476.031V474.039H1042.65C1041.77 474.039 1041.11 474.192 1040.67 474.498C1040.23 474.804 1040.01 475.237 1040.01 475.797C1040.01 476.253 1040.16 476.617 1040.46 476.891C1040.76 477.158 1041.17 477.291 1041.68 477.291ZM1053.44 479.195C1051.94 479.195 1050.72 478.723 1049.78 477.779C1048.85 476.829 1048.38 475.566 1048.38 473.99V473.697C1048.38 472.643 1048.59 471.702 1048.99 470.875C1049.4 470.042 1049.97 469.394 1050.71 468.932C1051.44 468.469 1052.26 468.238 1053.17 468.238C1054.61 468.238 1055.72 468.697 1056.5 469.615C1057.29 470.533 1057.68 471.832 1057.68 473.512V474.469H1050.78C1050.85 475.341 1051.14 476.031 1051.65 476.539C1052.16 477.047 1052.81 477.301 1053.58 477.301C1054.67 477.301 1055.55 476.861 1056.24 475.982L1057.52 477.203C1057.09 477.835 1056.53 478.326 1055.82 478.678C1055.11 479.023 1054.32 479.195 1053.44 479.195ZM1053.16 470.143C1052.51 470.143 1051.98 470.37 1051.58 470.826C1051.18 471.282 1050.93 471.917 1050.82 472.73H1055.34V472.555C1055.29 471.76 1055.07 471.161 1054.7 470.758C1054.33 470.348 1053.82 470.143 1053.16 470.143ZM1065.81 476.08L1068.93 468.434H1071.9V479H1069.53V472.008L1066.62 479H1065.01L1062.09 471.969V479H1059.71V468.434H1062.7L1065.81 476.08ZM1088.51 479H1086.14V470.348H1082.02V479H1079.64V468.434H1088.51V479ZM1090.59 473.619C1090.59 472.584 1090.8 471.653 1091.21 470.826C1091.62 469.993 1092.19 469.355 1092.94 468.912C1093.68 468.463 1094.53 468.238 1095.49 468.238C1096.92 468.238 1098.08 468.697 1098.96 469.615C1099.85 470.533 1100.33 471.751 1100.41 473.268L1100.42 473.824C1100.42 474.866 1100.21 475.797 1099.81 476.617C1099.41 477.438 1098.84 478.072 1098.09 478.521C1097.35 478.971 1096.49 479.195 1095.51 479.195C1094.02 479.195 1092.83 478.701 1091.93 477.711C1091.04 476.715 1090.59 475.39 1090.59 473.736V473.619ZM1092.96 473.824C1092.96 474.911 1093.19 475.764 1093.64 476.383C1094.09 476.995 1094.71 477.301 1095.51 477.301C1096.31 477.301 1096.94 476.988 1097.38 476.363C1097.83 475.738 1098.05 474.824 1098.05 473.619C1098.05 472.551 1097.82 471.705 1097.36 471.08C1096.9 470.455 1096.28 470.143 1095.49 470.143C1094.72 470.143 1094.1 470.452 1093.65 471.07C1093.19 471.682 1092.96 472.6 1092.96 473.824ZM1107.58 479V468.434H1111.87C1113.32 468.434 1114.42 468.688 1115.17 469.195C1115.93 469.697 1116.3 470.419 1116.3 471.363C1116.3 471.852 1116.15 472.291 1115.85 472.682C1115.55 473.066 1115.1 473.362 1114.51 473.57C1115.2 473.714 1115.74 474.003 1116.15 474.439C1116.55 474.876 1116.75 475.39 1116.75 475.982C1116.75 476.965 1116.39 477.714 1115.66 478.229C1114.94 478.743 1113.9 479 1112.54 479H1107.58ZM1109.96 474.498V477.125H1112.55C1113.77 477.125 1114.38 476.689 1114.38 475.816C1114.38 474.938 1113.76 474.498 1112.53 474.498H1109.96ZM1109.96 472.799H1111.91C1113.26 472.799 1113.93 472.402 1113.93 471.607C1113.93 470.774 1113.29 470.344 1112.02 470.318H1109.96V472.799ZM1123.15 477.301C1123.74 477.301 1124.23 477.128 1124.62 476.783C1125.02 476.438 1125.22 476.012 1125.25 475.504H1127.49C1127.46 476.161 1127.26 476.777 1126.87 477.35C1126.49 477.916 1125.97 478.365 1125.31 478.697C1124.65 479.029 1123.94 479.195 1123.18 479.195C1121.7 479.195 1120.53 478.717 1119.66 477.76C1118.8 476.803 1118.37 475.481 1118.37 473.795V473.551C1118.37 471.943 1118.79 470.657 1119.65 469.693C1120.51 468.723 1121.69 468.238 1123.17 468.238C1124.43 468.238 1125.45 468.606 1126.24 469.342C1127.03 470.071 1127.45 471.031 1127.49 472.223H1125.25C1125.22 471.617 1125.02 471.119 1124.62 470.729C1124.24 470.338 1123.75 470.143 1123.15 470.143C1122.38 470.143 1121.79 470.423 1121.37 470.982C1120.96 471.536 1120.74 472.379 1120.74 473.512V473.893C1120.74 475.038 1120.94 475.895 1121.35 476.461C1121.77 477.021 1122.37 477.301 1123.15 477.301ZM1133.93 479.195C1132.43 479.195 1131.21 478.723 1130.27 477.779C1129.34 476.829 1128.87 475.566 1128.87 473.99V473.697C1128.87 472.643 1129.07 471.702 1129.48 470.875C1129.89 470.042 1130.46 469.394 1131.2 468.932C1131.93 468.469 1132.75 468.238 1133.66 468.238C1135.1 468.238 1136.21 468.697 1136.99 469.615C1137.78 470.533 1138.17 471.832 1138.17 473.512V474.469H1131.27C1131.34 475.341 1131.63 476.031 1132.13 476.539C1132.65 477.047 1133.29 477.301 1134.07 477.301C1135.16 477.301 1136.04 476.861 1136.72 475.982L1138 477.203C1137.58 477.835 1137.01 478.326 1136.3 478.678C1135.6 479.023 1134.81 479.195 1133.93 479.195ZM1133.65 470.143C1133 470.143 1132.47 470.37 1132.07 470.826C1131.67 471.282 1131.42 471.917 1131.3 472.73H1135.83V472.555C1135.77 471.76 1135.56 471.161 1135.19 470.758C1134.82 470.348 1134.31 470.143 1133.65 470.143ZM1146.29 476.08L1149.42 468.434H1152.39V479H1150.02V472.008L1147.11 479H1145.49L1142.57 471.969V479H1140.2V468.434H1143.19L1146.29 476.08ZM1158.76 475.602L1160.9 468.434H1163.43L1159.23 480.602C1158.59 482.379 1157.5 483.268 1155.95 483.268C1155.61 483.268 1155.23 483.209 1154.81 483.092V481.256L1155.26 481.285C1155.86 481.285 1156.31 481.174 1156.61 480.953C1156.91 480.738 1157.15 480.374 1157.33 479.859L1157.67 478.951L1153.96 468.434H1156.52L1158.76 475.602ZM1174.22 472.906H1172.54V479H1170.08V464.781H1172.54V470.758H1173.9L1178.08 464.781H1181.11L1176.23 471.588L1181.54 479H1178.57L1174.22 472.906ZM1191.93 473.824C1191.93 475.458 1191.56 476.764 1190.82 477.74C1190.07 478.71 1189.08 479.195 1187.83 479.195C1186.67 479.195 1185.74 478.814 1185.04 478.053V483.062H1182.67V468.434H1184.86L1184.96 469.508C1185.65 468.661 1186.6 468.238 1187.8 468.238C1189.09 468.238 1190.1 468.72 1190.83 469.684C1191.56 470.641 1191.93 471.972 1191.93 473.678V473.824ZM1189.57 473.619C1189.57 472.564 1189.35 471.728 1188.93 471.109C1188.51 470.491 1187.92 470.182 1187.13 470.182C1186.16 470.182 1185.47 470.582 1185.04 471.383V476.07C1185.47 476.891 1186.18 477.301 1187.15 477.301C1187.91 477.301 1188.5 476.998 1188.92 476.393C1189.35 475.781 1189.57 474.856 1189.57 473.619ZM1196.5 471.793H1198.82C1199.69 471.793 1200.45 471.943 1201.09 472.242C1201.73 472.542 1202.22 472.962 1202.55 473.502C1202.89 474.042 1203.06 474.671 1203.06 475.387C1203.06 476.474 1202.68 477.346 1201.91 478.004C1201.14 478.661 1200.12 478.993 1198.84 479H1194.13V468.434H1196.5V471.793ZM1207.19 479H1204.82V468.434H1207.19V479ZM1196.5 473.697V477.105H1198.81C1199.39 477.105 1199.85 476.962 1200.18 476.676C1200.52 476.383 1200.69 475.969 1200.69 475.436C1200.69 474.902 1200.52 474.482 1200.19 474.176C1199.87 473.863 1199.42 473.704 1198.86 473.697H1196.5ZM1216.31 476.08L1219.44 468.434H1222.41V479H1220.04V472.008L1217.12 479H1215.51L1212.59 471.969V479H1210.22V468.434H1213.21L1216.31 476.08ZM1228.78 475.602L1230.92 468.434H1233.45L1229.25 480.602C1228.61 482.379 1227.52 483.268 1225.97 483.268C1225.63 483.268 1225.25 483.209 1224.83 483.092V481.256L1225.28 481.285C1225.88 481.285 1226.33 481.174 1226.63 480.953C1226.93 480.738 1227.17 480.374 1227.35 479.859L1227.69 478.951L1223.98 468.434H1226.54L1228.78 475.602ZM951.812 491.434H954.176V502H951.812V494.949L947.672 502H945.309V491.434H947.672V498.484L951.812 491.434ZM972.76 497.371C972.617 498.888 972.057 500.073 971.08 500.926C970.104 501.772 968.805 502.195 967.184 502.195C966.051 502.195 965.051 501.928 964.186 501.395C963.326 500.854 962.662 500.089 962.193 499.1C961.725 498.11 961.48 496.961 961.461 495.652V494.324C961.461 492.983 961.699 491.801 962.174 490.779C962.649 489.757 963.329 488.969 964.215 488.416C965.107 487.863 966.135 487.586 967.301 487.586C968.87 487.586 970.133 488.012 971.09 488.865C972.047 489.718 972.604 490.923 972.76 492.479H970.299C970.182 491.456 969.882 490.721 969.4 490.271C968.925 489.816 968.225 489.588 967.301 489.588C966.227 489.588 965.4 489.982 964.82 490.77C964.247 491.551 963.954 492.7 963.941 494.217V495.477C963.941 497.013 964.215 498.185 964.762 498.992C965.315 499.799 966.122 500.203 967.184 500.203C968.154 500.203 968.883 499.985 969.371 499.549C969.859 499.113 970.169 498.387 970.299 497.371H972.76ZM979.4 502.195C977.896 502.195 976.676 501.723 975.738 500.779C974.807 499.829 974.342 498.566 974.342 496.99V496.697C974.342 495.643 974.544 494.702 974.947 493.875C975.357 493.042 975.93 492.394 976.666 491.932C977.402 491.469 978.222 491.238 979.127 491.238C980.566 491.238 981.676 491.697 982.457 492.615C983.245 493.533 983.639 494.832 983.639 496.512V497.469H976.734C976.806 498.341 977.096 499.031 977.604 499.539C978.118 500.047 978.762 500.301 979.537 500.301C980.624 500.301 981.51 499.861 982.193 498.982L983.473 500.203C983.049 500.835 982.483 501.326 981.773 501.678C981.07 502.023 980.279 502.195 979.4 502.195ZM979.117 493.143C978.466 493.143 977.939 493.37 977.535 493.826C977.138 494.282 976.884 494.917 976.773 495.73H981.295V495.555C981.243 494.76 981.031 494.161 980.66 493.758C980.289 493.348 979.775 493.143 979.117 493.143ZM985.67 502V491.434H989.957C991.402 491.434 992.503 491.688 993.258 492.195C994.013 492.697 994.391 493.419 994.391 494.363C994.391 494.852 994.238 495.291 993.932 495.682C993.632 496.066 993.186 496.362 992.594 496.57C993.284 496.714 993.831 497.003 994.234 497.439C994.638 497.876 994.84 498.39 994.84 498.982C994.84 499.965 994.475 500.714 993.746 501.229C993.023 501.743 991.982 502 990.621 502H985.67ZM988.043 497.498V500.125H990.641C991.858 500.125 992.467 499.689 992.467 498.816C992.467 497.938 991.848 497.498 990.611 497.498H988.043ZM988.043 495.799H989.996C991.344 495.799 992.018 495.402 992.018 494.607C992.018 493.774 991.38 493.344 990.104 493.318H988.043V495.799ZM1003.21 502C1003.1 501.798 1003.01 501.469 1002.94 501.014C1002.18 501.801 1001.26 502.195 1000.16 502.195C999.101 502.195 998.235 501.893 997.564 501.287C996.894 500.682 996.559 499.933 996.559 499.041C996.559 497.915 996.975 497.052 997.809 496.453C998.648 495.848 999.846 495.545 1001.4 495.545H1002.86V494.852C1002.86 494.305 1002.7 493.868 1002.4 493.543C1002.09 493.211 1001.63 493.045 1001 493.045C1000.46 493.045 1000.02 493.182 999.674 493.455C999.329 493.722 999.156 494.064 999.156 494.48H996.783C996.783 493.901 996.975 493.361 997.359 492.859C997.743 492.352 998.264 491.954 998.922 491.668C999.586 491.382 1000.32 491.238 1001.14 491.238C1002.38 491.238 1003.36 491.551 1004.1 492.176C1004.83 492.794 1005.21 493.667 1005.23 494.793V499.559C1005.23 500.509 1005.36 501.268 1005.63 501.834V502H1003.21ZM1000.6 500.291C1001.07 500.291 1001.51 500.177 1001.92 499.949C1002.34 499.721 1002.65 499.415 1002.86 499.031V497.039H1001.58C1000.7 497.039 1000.04 497.192 999.596 497.498C999.153 497.804 998.932 498.237 998.932 498.797C998.932 499.253 999.081 499.617 999.381 499.891C999.687 500.158 1000.09 500.291 1000.6 500.291ZM1012.06 500.301C1012.65 500.301 1013.14 500.128 1013.53 499.783C1013.92 499.438 1014.13 499.012 1014.16 498.504H1016.39C1016.37 499.161 1016.16 499.777 1015.78 500.35C1015.39 500.916 1014.87 501.365 1014.21 501.697C1013.56 502.029 1012.85 502.195 1012.09 502.195C1010.61 502.195 1009.44 501.717 1008.57 500.76C1007.7 499.803 1007.27 498.481 1007.27 496.795V496.551C1007.27 494.943 1007.7 493.657 1008.56 492.693C1009.42 491.723 1010.59 491.238 1012.08 491.238C1013.33 491.238 1014.35 491.606 1015.14 492.342C1015.94 493.071 1016.35 494.031 1016.39 495.223H1014.16C1014.13 494.617 1013.92 494.119 1013.53 493.729C1013.15 493.338 1012.66 493.143 1012.06 493.143C1011.29 493.143 1010.7 493.423 1010.28 493.982C1009.86 494.536 1009.65 495.379 1009.64 496.512V496.893C1009.64 498.038 1009.85 498.895 1010.26 499.461C1010.68 500.021 1011.28 500.301 1012.06 500.301ZM1026.5 493.318H1023.07V502H1020.7V493.318H1017.31V491.434H1026.5V493.318ZM1027.35 496.619C1027.35 495.584 1027.55 494.653 1027.96 493.826C1028.38 492.993 1028.95 492.355 1029.69 491.912C1030.44 491.463 1031.29 491.238 1032.25 491.238C1033.68 491.238 1034.83 491.697 1035.72 492.615C1036.61 493.533 1037.09 494.751 1037.16 496.268L1037.17 496.824C1037.17 497.866 1036.97 498.797 1036.57 499.617C1036.17 500.438 1035.6 501.072 1034.85 501.521C1034.11 501.971 1033.25 502.195 1032.27 502.195C1030.78 502.195 1029.59 501.701 1028.69 500.711C1027.8 499.715 1027.35 498.39 1027.35 496.736V496.619ZM1029.72 496.824C1029.72 497.911 1029.95 498.764 1030.4 499.383C1030.85 499.995 1031.47 500.301 1032.27 500.301C1033.07 500.301 1033.69 499.988 1034.14 499.363C1034.59 498.738 1034.81 497.824 1034.81 496.619C1034.81 495.551 1034.58 494.705 1034.12 494.08C1033.66 493.455 1033.04 493.143 1032.25 493.143C1031.48 493.143 1030.86 493.452 1030.41 494.07C1029.95 494.682 1029.72 495.6 1029.72 496.824ZM1048.14 502H1045.77V493.348H1041.65V502H1039.27V491.434H1048.14V502ZM1050.22 496.619C1050.22 495.584 1050.43 494.653 1050.84 493.826C1051.25 492.993 1051.82 492.355 1052.56 491.912C1053.31 491.463 1054.16 491.238 1055.12 491.238C1056.55 491.238 1057.7 491.697 1058.59 492.615C1059.48 493.533 1059.96 494.751 1060.04 496.268L1060.04 496.824C1060.04 497.866 1059.84 498.797 1059.44 499.617C1059.04 500.438 1058.47 501.072 1057.72 501.521C1056.98 501.971 1056.12 502.195 1055.14 502.195C1053.65 502.195 1052.46 501.701 1051.56 500.711C1050.67 499.715 1050.22 498.39 1050.22 496.736V496.619ZM1052.59 496.824C1052.59 497.911 1052.82 498.764 1053.27 499.383C1053.72 499.995 1054.34 500.301 1055.14 500.301C1055.94 500.301 1056.57 499.988 1057.01 499.363C1057.46 498.738 1057.68 497.824 1057.68 496.619C1057.68 495.551 1057.45 494.705 1056.99 494.08C1056.53 493.455 1055.91 493.143 1055.12 493.143C1054.35 493.143 1053.73 493.452 1053.28 494.07C1052.82 494.682 1052.59 495.6 1052.59 496.824ZM1070.88 491.434V502H1068.5V493.348H1065.51L1065.32 497.029C1065.19 498.8 1064.85 500.073 1064.29 500.848C1063.74 501.616 1062.89 502 1061.74 502H1061.01L1061 500.027L1061.49 499.979C1062.01 499.907 1062.39 499.591 1062.62 499.031C1062.86 498.465 1063.02 497.436 1063.08 495.945L1063.28 491.434H1070.88ZM1075.97 495.682H1077.96C1078.14 494.334 1078.66 493.257 1079.53 492.449C1080.39 491.642 1081.49 491.238 1082.81 491.238C1084.23 491.238 1085.39 491.697 1086.28 492.615C1087.17 493.533 1087.65 494.751 1087.72 496.268L1087.73 496.824C1087.73 497.866 1087.53 498.797 1087.12 499.617C1086.73 500.438 1086.15 501.072 1085.41 501.521C1084.66 501.971 1083.8 502.195 1082.83 502.195C1081.46 502.195 1080.34 501.772 1079.46 500.926C1078.59 500.079 1078.08 498.966 1077.95 497.586H1075.97V502H1073.6V491.434H1075.97V495.682ZM1080.28 496.824C1080.28 497.911 1080.5 498.764 1080.95 499.383C1081.4 499.995 1082.03 500.301 1082.83 500.301C1083.63 500.301 1084.25 499.988 1084.69 499.363C1085.14 498.738 1085.36 497.824 1085.36 496.619C1085.36 495.532 1085.13 494.682 1084.66 494.07C1084.21 493.452 1083.59 493.143 1082.81 493.143C1082.03 493.143 1081.42 493.452 1080.96 494.07C1080.51 494.682 1080.28 495.6 1080.28 496.824ZM1092.2 497.811H1090.16L1089.94 487.781H1092.44L1092.2 497.811ZM1089.87 500.877C1089.87 500.506 1089.99 500.2 1090.23 499.959C1090.47 499.712 1090.8 499.588 1091.22 499.588C1091.63 499.588 1091.96 499.712 1092.2 499.959C1092.44 500.2 1092.56 500.506 1092.56 500.877C1092.56 501.235 1092.45 501.535 1092.21 501.775C1091.98 502.016 1091.65 502.137 1091.22 502.137C1090.79 502.137 1090.46 502.016 1090.22 501.775C1089.99 501.535 1089.87 501.235 1089.87 500.877Z" fill="#FAFAFA"/>
<path d="M985.445 318V303.781H990.318C991.926 303.781 993.15 304.104 993.99 304.748C994.83 305.393 995.25 306.353 995.25 307.629C995.25 308.28 995.074 308.866 994.723 309.387C994.371 309.908 993.857 310.311 993.18 310.598C993.948 310.806 994.54 311.2 994.957 311.779C995.38 312.352 995.592 313.042 995.592 313.85C995.592 315.184 995.162 316.21 994.303 316.926C993.45 317.642 992.226 318 990.631 318H985.445ZM987.916 311.584V316.027H990.66C991.435 316.027 992.04 315.835 992.477 315.451C992.913 315.067 993.131 314.533 993.131 313.85C993.131 312.372 992.376 311.617 990.865 311.584H987.916ZM987.916 309.768H990.338C991.106 309.768 991.705 309.595 992.135 309.25C992.571 308.898 992.789 308.404 992.789 307.766C992.789 307.062 992.587 306.555 992.184 306.242C991.786 305.93 991.165 305.773 990.318 305.773H987.916V309.768ZM1007.09 312.824C1007.09 314.458 1006.71 315.764 1005.97 316.74C1005.23 317.71 1004.23 318.195 1002.98 318.195C1001.83 318.195 1000.9 317.814 1000.2 317.053V322.062H997.828V307.434H1000.02L1000.11 308.508C1000.81 307.661 1001.76 307.238 1002.96 307.238C1004.24 307.238 1005.25 307.72 1005.98 308.684C1006.72 309.641 1007.09 310.972 1007.09 312.678V312.824ZM1004.72 312.619C1004.72 311.564 1004.51 310.728 1004.09 310.109C1003.67 309.491 1003.07 309.182 1002.29 309.182C1001.32 309.182 1000.62 309.582 1000.2 310.383V315.07C1000.63 315.891 1001.33 316.301 1002.31 316.301C1003.07 316.301 1003.65 315.998 1004.08 315.393C1004.51 314.781 1004.72 313.856 1004.72 312.619ZM1013.76 318.195C1012.25 318.195 1011.03 317.723 1010.09 316.779C1009.16 315.829 1008.7 314.566 1008.7 312.99V312.697C1008.7 311.643 1008.9 310.702 1009.3 309.875C1009.71 309.042 1010.29 308.394 1011.02 307.932C1011.76 307.469 1012.58 307.238 1013.48 307.238C1014.92 307.238 1016.03 307.697 1016.81 308.615C1017.6 309.533 1017.99 310.832 1017.99 312.512V313.469H1011.09C1011.16 314.341 1011.45 315.031 1011.96 315.539C1012.47 316.047 1013.12 316.301 1013.89 316.301C1014.98 316.301 1015.87 315.861 1016.55 314.982L1017.83 316.203C1017.4 316.835 1016.84 317.326 1016.13 317.678C1015.43 318.023 1014.63 318.195 1013.76 318.195ZM1013.47 309.143C1012.82 309.143 1012.29 309.37 1011.89 309.826C1011.49 310.282 1011.24 310.917 1011.13 311.73H1015.65V311.555C1015.6 310.76 1015.39 310.161 1015.02 309.758C1014.64 309.348 1014.13 309.143 1013.47 309.143ZM1026.12 315.08L1029.24 307.434H1032.21V318H1029.84V311.008L1026.93 318H1025.32L1022.4 310.969V318H1020.03V307.434H1023.01L1026.12 315.08ZM1043.35 307.434V318H1040.98V314.123H1038.77L1036.51 318H1034.05L1036.54 313.732C1035.89 313.459 1035.39 313.068 1035.04 312.561C1034.69 312.053 1034.52 311.47 1034.52 310.812C1034.52 309.829 1034.9 309.025 1035.65 308.4C1036.41 307.769 1037.44 307.447 1038.73 307.434H1043.35ZM1036.89 310.871C1036.89 311.314 1037.05 311.675 1037.38 311.955C1037.71 312.229 1038.13 312.365 1038.65 312.365H1040.98V309.318H1038.79C1038.22 309.318 1037.75 309.465 1037.41 309.758C1037.06 310.051 1036.89 310.422 1036.89 310.871ZM1060.21 312.824C1060.21 314.458 1059.84 315.764 1059.1 316.74C1058.36 317.71 1057.36 318.195 1056.11 318.195C1054.95 318.195 1054.02 317.814 1053.33 317.053V322.062H1050.95V307.434H1053.14L1053.24 308.508C1053.93 307.661 1054.88 307.238 1056.08 307.238C1057.37 307.238 1058.38 307.72 1059.11 308.684C1059.84 309.641 1060.21 310.972 1060.21 312.678V312.824ZM1057.85 312.619C1057.85 311.564 1057.64 310.728 1057.21 310.109C1056.8 309.491 1056.2 309.182 1055.42 309.182C1054.45 309.182 1053.75 309.582 1053.33 310.383V315.07C1053.76 315.891 1054.46 316.301 1055.44 316.301C1056.19 316.301 1056.78 315.998 1057.2 315.393C1057.63 314.781 1057.85 313.856 1057.85 312.619ZM1068.54 318C1068.44 317.798 1068.35 317.469 1068.27 317.014C1067.51 317.801 1066.59 318.195 1065.49 318.195C1064.43 318.195 1063.57 317.893 1062.9 317.287C1062.23 316.682 1061.89 315.933 1061.89 315.041C1061.89 313.915 1062.31 313.052 1063.14 312.453C1063.98 311.848 1065.18 311.545 1066.73 311.545H1068.19V310.852C1068.19 310.305 1068.04 309.868 1067.73 309.543C1067.42 309.211 1066.96 309.045 1066.33 309.045C1065.79 309.045 1065.35 309.182 1065.01 309.455C1064.66 309.722 1064.49 310.064 1064.49 310.48H1062.12C1062.12 309.901 1062.31 309.361 1062.69 308.859C1063.08 308.352 1063.6 307.954 1064.25 307.668C1064.92 307.382 1065.66 307.238 1066.47 307.238C1067.71 307.238 1068.69 307.551 1069.43 308.176C1070.17 308.794 1070.54 309.667 1070.56 310.793V315.559C1070.56 316.509 1070.7 317.268 1070.96 317.834V318H1068.54ZM1065.93 316.291C1066.4 316.291 1066.84 316.177 1067.25 315.949C1067.67 315.721 1067.98 315.415 1068.19 315.031V313.039H1066.91C1066.03 313.039 1065.37 313.192 1064.93 313.498C1064.49 313.804 1064.26 314.237 1064.26 314.797C1064.26 315.253 1064.41 315.617 1064.71 315.891C1065.02 316.158 1065.43 316.291 1065.93 316.291ZM1078.02 308.02C1079.35 308.02 1080.42 308.465 1081.22 309.357C1082.02 310.243 1082.42 311.447 1082.42 312.971V313.088C1082.42 314.611 1081.98 315.845 1081.11 316.789C1080.24 317.733 1079.07 318.205 1077.57 318.205C1076.12 318.205 1074.95 317.723 1074.06 316.76C1073.17 315.796 1072.72 314.481 1072.72 312.814V312.131C1072.72 309.852 1073.12 308.049 1073.93 306.721C1074.74 305.393 1075.94 304.562 1077.54 304.23C1078.44 304.048 1079.02 303.856 1079.28 303.654C1079.55 303.446 1079.68 303.166 1079.68 302.814H1081.6C1081.6 303.472 1081.49 304.006 1081.28 304.416C1081.06 304.826 1080.73 305.161 1080.29 305.422C1079.85 305.676 1079.08 305.917 1078 306.145C1077.01 306.353 1076.26 306.724 1075.74 307.258C1075.22 307.792 1074.88 308.531 1074.7 309.475C1075.65 308.505 1076.75 308.02 1078.02 308.02ZM1077.55 309.924C1076.79 309.924 1076.18 310.184 1075.75 310.705C1075.31 311.219 1075.09 312.014 1075.09 313.088C1075.09 314.104 1075.31 314.895 1075.74 315.461C1076.17 316.027 1076.78 316.311 1077.57 316.311C1078.36 316.311 1078.97 316.027 1079.4 315.461C1079.84 314.888 1080.05 314.029 1080.05 312.883C1080.05 311.971 1079.84 311.252 1079.4 310.725C1078.97 310.191 1078.36 309.924 1077.55 309.924ZM1083.83 312.619C1083.83 311.584 1084.04 310.653 1084.45 309.826C1084.86 308.993 1085.44 308.355 1086.18 307.912C1086.92 307.463 1087.77 307.238 1088.74 307.238C1090.16 307.238 1091.32 307.697 1092.2 308.615C1093.1 309.533 1093.58 310.751 1093.65 312.268L1093.66 312.824C1093.66 313.866 1093.46 314.797 1093.05 315.617C1092.66 316.438 1092.08 317.072 1091.33 317.521C1090.59 317.971 1089.73 318.195 1088.76 318.195C1087.26 318.195 1086.07 317.701 1085.17 316.711C1084.28 315.715 1083.83 314.39 1083.83 312.736V312.619ZM1086.21 312.824C1086.21 313.911 1086.43 314.764 1086.88 315.383C1087.33 315.995 1087.96 316.301 1088.76 316.301C1089.56 316.301 1090.18 315.988 1090.62 315.363C1091.07 314.738 1091.29 313.824 1091.29 312.619C1091.29 311.551 1091.06 310.705 1090.6 310.08C1090.15 309.455 1089.52 309.143 1088.74 309.143C1087.96 309.143 1087.35 309.452 1086.89 310.07C1086.43 310.682 1086.21 311.6 1086.21 312.824ZM1103.69 309.318H1100.26V318H1097.89V309.318H1094.5V307.434H1103.69V309.318ZM1107.83 310.793H1110.15C1111.02 310.793 1111.77 310.943 1112.42 311.242C1113.06 311.542 1113.55 311.962 1113.88 312.502C1114.22 313.042 1114.39 313.671 1114.39 314.387C1114.39 315.474 1114.01 316.346 1113.24 317.004C1112.47 317.661 1111.45 317.993 1110.17 318H1105.46V307.434H1107.83V310.793ZM1118.52 318H1116.15V307.434H1118.52V318ZM1107.83 312.697V316.105H1110.14C1110.72 316.105 1111.18 315.962 1111.51 315.676C1111.85 315.383 1112.02 314.969 1112.02 314.436C1112.02 313.902 1111.85 313.482 1111.52 313.176C1111.19 312.863 1110.75 312.704 1110.19 312.697H1107.83ZM1122.8 315.5C1123.24 315.5 1123.58 315.627 1123.82 315.881C1124.07 316.128 1124.19 316.441 1124.19 316.818C1124.19 317.189 1124.07 317.499 1123.82 317.746C1123.58 317.987 1123.24 318.107 1122.8 318.107C1122.38 318.107 1122.04 317.987 1121.79 317.746C1121.55 317.505 1121.42 317.196 1121.42 316.818C1121.42 316.441 1121.54 316.128 1121.78 315.881C1122.02 315.627 1122.36 315.5 1122.8 315.5ZM1122.8 307.209C1123.24 307.209 1123.58 307.336 1123.82 307.59C1124.07 307.837 1124.19 308.15 1124.19 308.527C1124.19 308.898 1124.07 309.208 1123.82 309.455C1123.58 309.696 1123.24 309.816 1122.8 309.816C1122.38 309.816 1122.04 309.696 1121.79 309.455C1121.55 309.214 1121.42 308.905 1121.42 308.527C1121.42 308.15 1121.54 307.837 1121.78 307.59C1122.02 307.336 1122.36 307.209 1122.8 307.209ZM996.695 341H994.234V328.773H987.975V341H985.514V326.781H996.695V341ZM1008.4 341H1006.03V336.732H1001.92V341H999.547V330.434H1001.92V334.838H1006.03V330.434H1008.4V341ZM1015.54 335.912H1010.42V333.998H1015.54V335.912ZM1017.73 341V326.781H1022.6C1024.21 326.781 1025.44 327.104 1026.28 327.748C1027.12 328.393 1027.54 329.353 1027.54 330.629C1027.54 331.28 1027.36 331.866 1027.01 332.387C1026.66 332.908 1026.14 333.311 1025.46 333.598C1026.23 333.806 1026.83 334.2 1027.24 334.779C1027.67 335.352 1027.88 336.042 1027.88 336.85C1027.88 338.184 1027.45 339.21 1026.59 339.926C1025.74 340.642 1024.51 341 1022.92 341H1017.73ZM1020.2 334.584V339.027H1022.95C1023.72 339.027 1024.33 338.835 1024.76 338.451C1025.2 338.067 1025.42 337.533 1025.42 336.85C1025.42 335.372 1024.66 334.617 1023.15 334.584H1020.2ZM1020.2 332.768H1022.62C1023.39 332.768 1023.99 332.595 1024.42 332.25C1024.86 331.898 1025.07 331.404 1025.07 330.766C1025.07 330.062 1024.87 329.555 1024.47 329.242C1024.07 328.93 1023.45 328.773 1022.6 328.773H1020.2V332.768ZM1034.46 339.301C1035.05 339.301 1035.54 339.128 1035.93 338.783C1036.32 338.438 1036.53 338.012 1036.56 337.504H1038.79C1038.77 338.161 1038.56 338.777 1038.18 339.35C1037.8 339.916 1037.27 340.365 1036.62 340.697C1035.96 341.029 1035.25 341.195 1034.49 341.195C1033.01 341.195 1031.84 340.717 1030.97 339.76C1030.11 338.803 1029.67 337.481 1029.67 335.795V335.551C1029.67 333.943 1030.1 332.657 1030.96 331.693C1031.82 330.723 1032.99 330.238 1034.48 330.238C1035.74 330.238 1036.76 330.606 1037.54 331.342C1038.34 332.071 1038.76 333.031 1038.79 334.223H1036.56C1036.53 333.617 1036.32 333.119 1035.93 332.729C1035.55 332.338 1035.06 332.143 1034.46 332.143C1033.69 332.143 1033.1 332.423 1032.68 332.982C1032.26 333.536 1032.05 334.379 1032.05 335.512V335.893C1032.05 337.038 1032.25 337.895 1032.66 338.461C1033.08 339.021 1033.68 339.301 1034.46 339.301ZM1052.14 335.053C1051.35 335.893 1050.42 336.312 1049.36 336.312C1048.11 336.312 1047.12 335.876 1046.37 335.004C1045.63 334.125 1045.26 332.973 1045.26 331.547C1045.26 330.609 1045.45 329.76 1045.83 328.998C1046.2 328.236 1046.74 327.644 1047.44 327.221C1048.13 326.798 1048.94 326.586 1049.86 326.586C1051.29 326.586 1052.43 327.12 1053.27 328.188C1054.11 329.255 1054.53 330.684 1054.53 332.475V333.139C1054.53 335.704 1053.95 337.66 1052.79 339.008C1051.63 340.355 1049.9 341.039 1047.6 341.059H1047.32V339.096H1047.66C1049.06 339.076 1050.14 338.741 1050.88 338.09C1051.63 337.432 1052.05 336.42 1052.14 335.053ZM1049.86 334.457C1050.33 334.457 1050.78 334.32 1051.2 334.047C1051.61 333.773 1051.94 333.396 1052.16 332.914V331.986C1052.16 330.938 1051.95 330.095 1051.52 329.457C1051.09 328.819 1050.53 328.5 1049.85 328.5C1049.17 328.5 1048.62 328.783 1048.21 329.35C1047.81 329.91 1047.6 330.619 1047.6 331.479C1047.6 332.37 1047.81 333.09 1048.22 333.637C1048.63 334.184 1049.18 334.457 1049.86 334.457ZM1058.41 338.5C1058.86 338.5 1059.2 338.627 1059.44 338.881C1059.68 339.128 1059.8 339.441 1059.8 339.818C1059.8 340.189 1059.68 340.499 1059.44 340.746C1059.2 340.987 1058.86 341.107 1058.41 341.107C1057.99 341.107 1057.66 340.987 1057.41 340.746C1057.16 340.505 1057.04 340.196 1057.04 339.818C1057.04 339.441 1057.16 339.128 1057.4 338.881C1057.64 338.627 1057.98 338.5 1058.41 338.5ZM1071.64 335.014C1071.64 337.058 1071.25 338.601 1070.48 339.643C1069.72 340.678 1068.56 341.195 1067 341.195C1065.46 341.195 1064.3 340.691 1063.52 339.682C1062.75 338.666 1062.35 337.165 1062.33 335.18V332.719C1062.33 330.674 1062.71 329.141 1063.47 328.119C1064.24 327.097 1065.41 326.586 1066.98 326.586C1068.53 326.586 1069.69 327.084 1070.46 328.08C1071.22 329.076 1071.62 330.567 1071.64 332.553V335.014ZM1069.26 332.357C1069.26 331.023 1069.08 330.046 1068.72 329.428C1068.35 328.803 1067.77 328.49 1066.98 328.49C1066.2 328.49 1065.63 328.786 1065.27 329.379C1064.9 329.965 1064.71 330.883 1064.69 332.133V335.355C1064.69 336.684 1064.88 337.673 1065.25 338.324C1065.62 338.975 1066.2 339.301 1067 339.301C1067.76 339.301 1068.32 339.001 1068.69 338.402C1069.05 337.797 1069.24 336.853 1069.26 335.57V332.357ZM1083 335.014C1083 337.058 1082.62 338.601 1081.85 339.643C1081.09 340.678 1079.93 341.195 1078.37 341.195C1076.83 341.195 1075.67 340.691 1074.89 339.682C1074.11 338.666 1073.72 337.165 1073.7 335.18V332.719C1073.7 330.674 1074.08 329.141 1074.84 328.119C1075.61 327.097 1076.78 326.586 1078.35 326.586C1079.9 326.586 1081.06 327.084 1081.82 328.08C1082.59 329.076 1082.98 330.567 1083 332.553V335.014ZM1080.63 332.357C1080.63 331.023 1080.45 330.046 1080.08 329.428C1079.72 328.803 1079.14 328.49 1078.35 328.49C1077.57 328.49 1077 328.786 1076.64 329.379C1076.27 329.965 1076.08 330.883 1076.06 332.133V335.355C1076.06 336.684 1076.25 337.673 1076.62 338.324C1076.99 338.975 1077.57 339.301 1078.37 339.301C1079.13 339.301 1079.69 339.001 1080.05 338.402C1080.42 337.797 1080.61 336.853 1080.63 335.57V332.357ZM1089.86 335.912H1084.73V333.998H1089.86V335.912ZM1101.23 341H1091.67V339.369L1096.4 334.203C1097.09 333.441 1097.57 332.807 1097.86 332.299C1098.15 331.785 1098.3 331.27 1098.3 330.756C1098.3 330.079 1098.1 329.532 1097.72 329.115C1097.34 328.699 1096.83 328.49 1096.19 328.49C1095.42 328.49 1094.82 328.725 1094.4 329.193C1093.98 329.662 1093.77 330.303 1093.77 331.117H1091.39C1091.39 330.251 1091.59 329.473 1091.98 328.783C1092.38 328.087 1092.94 327.546 1093.67 327.162C1094.4 326.778 1095.25 326.586 1096.21 326.586C1097.59 326.586 1098.67 326.934 1099.47 327.631C1100.27 328.321 1100.67 329.278 1100.67 330.502C1100.67 331.212 1100.47 331.957 1100.06 332.738C1099.67 333.513 1099.01 334.395 1098.1 335.385L1094.62 339.105H1101.23V341ZM1109.46 341H1107.1V329.584L1103.61 330.775V328.773L1109.16 326.732H1109.46V341ZM1116.03 338.5C1116.47 338.5 1116.82 338.627 1117.06 338.881C1117.3 339.128 1117.42 339.441 1117.42 339.818C1117.42 340.189 1117.3 340.499 1117.06 340.746C1116.82 340.987 1116.47 341.107 1116.03 341.107C1115.61 341.107 1115.27 340.987 1115.03 340.746C1114.78 340.505 1114.65 340.196 1114.65 339.818C1114.65 339.441 1114.77 339.128 1115.02 338.881C1115.26 338.627 1115.6 338.5 1116.03 338.5ZM1129.25 335.014C1129.25 337.058 1128.87 338.601 1128.1 339.643C1127.34 340.678 1126.18 341.195 1124.62 341.195C1123.08 341.195 1121.92 340.691 1121.14 339.682C1120.36 338.666 1119.97 337.165 1119.95 335.18V332.719C1119.95 330.674 1120.33 329.141 1121.09 328.119C1121.86 327.097 1123.03 326.586 1124.6 326.586C1126.15 326.586 1127.31 327.084 1128.07 328.08C1128.84 329.076 1129.23 330.567 1129.25 332.553V335.014ZM1126.88 332.357C1126.88 331.023 1126.7 330.046 1126.33 329.428C1125.97 328.803 1125.39 328.49 1124.6 328.49C1123.82 328.49 1123.25 328.786 1122.89 329.379C1122.52 329.965 1122.33 330.883 1122.31 332.133V335.355C1122.31 336.684 1122.5 337.673 1122.87 338.324C1123.24 338.975 1123.82 339.301 1124.62 339.301C1125.38 339.301 1125.94 339.001 1126.3 338.402C1126.67 337.797 1126.86 336.853 1126.88 335.57V332.357ZM1140.62 335.014C1140.62 337.058 1140.24 338.601 1139.47 339.643C1138.71 340.678 1137.54 341.195 1135.98 341.195C1134.45 341.195 1133.29 340.691 1132.51 339.682C1131.73 338.666 1131.33 337.165 1131.31 335.18V332.719C1131.31 330.674 1131.7 329.141 1132.46 328.119C1133.23 327.097 1134.39 326.586 1135.96 326.586C1137.52 326.586 1138.68 327.084 1139.44 328.08C1140.21 329.076 1140.6 330.567 1140.62 332.553V335.014ZM1138.25 332.357C1138.25 331.023 1138.07 330.046 1137.7 329.428C1137.34 328.803 1136.76 328.49 1135.96 328.49C1135.19 328.49 1134.62 328.786 1134.25 329.379C1133.89 329.965 1133.7 330.883 1133.68 332.133V335.355C1133.68 336.684 1133.86 337.673 1134.23 338.324C1134.61 338.975 1135.19 339.301 1135.98 339.301C1136.74 339.301 1137.31 339.001 1137.67 338.402C1138.04 337.797 1138.23 336.853 1138.25 335.57V332.357Z" fill="#FAFAFA"/>
<path d="M995.719 234.773H991.285V247H988.834V234.773H984.439V232.781H995.719V234.773ZM1001.14 247.195C999.635 247.195 998.414 246.723 997.477 245.779C996.546 244.829 996.08 243.566 996.08 241.99V241.697C996.08 240.643 996.282 239.702 996.686 238.875C997.096 238.042 997.669 237.394 998.404 236.932C999.14 236.469 999.96 236.238 1000.87 236.238C1002.3 236.238 1003.41 236.697 1004.2 237.615C1004.98 238.533 1005.38 239.832 1005.38 241.512V242.469H998.473C998.544 243.341 998.834 244.031 999.342 244.539C999.856 245.047 1000.5 245.301 1001.28 245.301C1002.36 245.301 1003.25 244.861 1003.93 243.982L1005.21 245.203C1004.79 245.835 1004.22 246.326 1003.51 246.678C1002.81 247.023 1002.02 247.195 1001.14 247.195ZM1000.86 238.143C1000.2 238.143 999.677 238.37 999.273 238.826C998.876 239.282 998.622 239.917 998.512 240.73H1003.03V240.555C1002.98 239.76 1002.77 239.161 1002.4 238.758C1002.03 238.348 1001.51 238.143 1000.86 238.143ZM1016.21 236.434V247H1013.83V238.348H1010.85L1010.65 242.029C1010.53 243.8 1010.18 245.073 1009.62 245.848C1009.07 246.616 1008.22 247 1007.08 247H1006.34L1006.33 245.027L1006.82 244.979C1007.34 244.907 1007.72 244.591 1007.96 244.031C1008.2 243.465 1008.35 242.436 1008.41 240.945L1008.61 236.434H1016.21ZM1023.38 247.195C1021.88 247.195 1020.66 246.723 1019.72 245.779C1018.79 244.829 1018.33 243.566 1018.33 241.99V241.697C1018.33 240.643 1018.53 239.702 1018.93 238.875C1019.34 238.042 1019.91 237.394 1020.65 236.932C1021.39 236.469 1022.21 236.238 1023.11 236.238C1024.55 236.238 1025.66 236.697 1026.44 237.615C1027.23 238.533 1027.62 239.832 1027.62 241.512V242.469H1020.72C1020.79 243.341 1021.08 244.031 1021.59 244.539C1022.1 245.047 1022.75 245.301 1023.52 245.301C1024.61 245.301 1025.49 244.861 1026.18 243.982L1027.46 245.203C1027.03 245.835 1026.47 246.326 1025.76 246.678C1025.05 247.023 1024.26 247.195 1023.38 247.195ZM1023.1 238.143C1022.45 238.143 1021.92 238.37 1021.52 238.826C1021.12 239.282 1020.87 239.917 1020.76 240.73H1025.28V240.555C1025.23 239.76 1025.02 239.161 1024.64 238.758C1024.27 238.348 1023.76 238.143 1023.1 238.143ZM1029.08 241.863C1029.08 240.138 1029.42 238.771 1030.09 237.762C1030.78 236.746 1031.73 236.238 1032.95 236.238C1033.44 236.238 1033.89 236.329 1034.29 236.512V232H1036.66V236.551C1037.07 236.342 1037.56 236.238 1038.12 236.238C1039.33 236.238 1040.28 236.743 1040.96 237.752C1041.65 238.755 1042 240.193 1042 242.068C1042 243.65 1041.65 244.9 1040.96 245.818C1040.27 246.736 1039.33 247.195 1038.14 247.195C1037.6 247.195 1037.11 247.098 1036.66 246.902V251.062H1034.29V246.941C1033.9 247.111 1033.44 247.195 1032.93 247.195C1031.79 247.195 1030.88 246.775 1030.19 245.936C1029.51 245.089 1029.15 243.927 1029.09 242.449L1029.08 241.863ZM1039.62 241.863C1039.62 240.678 1039.44 239.764 1039.06 239.119C1038.68 238.468 1038.15 238.143 1037.46 238.143C1037.16 238.143 1036.9 238.185 1036.66 238.27V245.203C1036.87 245.268 1037.14 245.301 1037.48 245.301C1038.91 245.301 1039.62 244.155 1039.62 241.863ZM1031.44 242.068C1031.44 243.123 1031.62 243.927 1031.97 244.48C1032.32 245.027 1032.84 245.301 1033.53 245.301C1033.82 245.301 1034.08 245.268 1034.29 245.203V238.24C1034.07 238.175 1033.82 238.143 1033.55 238.143C1032.87 238.143 1032.35 238.458 1031.99 239.09C1031.62 239.715 1031.44 240.708 1031.44 242.068ZM1043.6 241.619C1043.6 240.584 1043.8 239.653 1044.21 238.826C1044.62 237.993 1045.2 237.355 1045.94 236.912C1046.69 236.463 1047.54 236.238 1048.5 236.238C1049.93 236.238 1051.08 236.697 1051.97 237.615C1052.86 238.533 1053.34 239.751 1053.41 241.268L1053.42 241.824C1053.42 242.866 1053.22 243.797 1052.82 244.617C1052.42 245.438 1051.85 246.072 1051.1 246.521C1050.36 246.971 1049.5 247.195 1048.52 247.195C1047.03 247.195 1045.84 246.701 1044.94 245.711C1044.05 244.715 1043.6 243.39 1043.6 241.736V241.619ZM1045.97 241.824C1045.97 242.911 1046.2 243.764 1046.65 244.383C1047.1 244.995 1047.72 245.301 1048.52 245.301C1049.32 245.301 1049.94 244.988 1050.39 244.363C1050.84 243.738 1051.06 242.824 1051.06 241.619C1051.06 240.551 1050.83 239.705 1050.37 239.08C1049.91 238.455 1049.29 238.143 1048.5 238.143C1047.73 238.143 1047.11 238.452 1046.66 239.07C1046.2 239.682 1045.97 240.6 1045.97 241.824ZM1064.38 247H1062.01V242.732H1057.9V247H1055.52V236.434H1057.9V240.838H1062.01V236.434H1064.38V247ZM1068.35 244.5C1068.79 244.5 1069.13 244.627 1069.37 244.881C1069.61 245.128 1069.73 245.441 1069.73 245.818C1069.73 246.189 1069.61 246.499 1069.37 246.746C1069.13 246.987 1068.79 247.107 1068.35 247.107C1067.92 247.107 1067.59 246.987 1067.34 246.746C1067.09 246.505 1066.97 246.196 1066.97 245.818C1066.97 245.441 1067.09 245.128 1067.33 244.881C1067.57 244.627 1067.91 244.5 1068.35 244.5ZM1068.35 236.209C1068.79 236.209 1069.13 236.336 1069.37 236.59C1069.61 236.837 1069.73 237.15 1069.73 237.527C1069.73 237.898 1069.61 238.208 1069.37 238.455C1069.13 238.696 1068.79 238.816 1068.35 238.816C1067.92 238.816 1067.59 238.696 1067.34 238.455C1067.09 238.214 1066.97 237.905 1066.97 237.527C1066.97 237.15 1067.09 236.837 1067.33 236.59C1067.57 236.336 1067.91 236.209 1068.35 236.209ZM990.699 262.178H994.41V264.346H990.699V268.574H988.395V264.346H984.664V262.178H988.395V258.223H990.699V262.178ZM1005.68 257.1L999.996 270H997.506L1003.18 257.686H995.826V255.781H1005.68V257.1ZM1012.75 264.219C1012.75 262.715 1012.95 261.289 1013.36 259.941C1013.76 258.587 1014.35 257.38 1015.13 256.318C1015.91 255.251 1016.74 254.502 1017.61 254.072L1018.08 255.459C1017.16 256.156 1016.42 257.22 1015.85 258.652C1015.28 260.078 1014.97 261.712 1014.92 263.555L1014.91 264.395C1014.91 266.367 1015.18 268.128 1015.74 269.678C1016.3 271.221 1017.08 272.396 1018.08 273.203L1017.61 274.521C1016.74 274.092 1015.91 273.34 1015.12 272.266C1014.34 271.198 1013.75 269.993 1013.35 268.652C1012.95 267.305 1012.75 265.827 1012.75 264.219ZM1026.27 264.053C1025.47 264.893 1024.54 265.312 1023.48 265.312C1022.23 265.312 1021.24 264.876 1020.49 264.004C1019.75 263.125 1019.38 261.973 1019.38 260.547C1019.38 259.609 1019.57 258.76 1019.95 257.998C1020.32 257.236 1020.86 256.644 1021.56 256.221C1022.26 255.798 1023.06 255.586 1023.98 255.586C1025.41 255.586 1026.55 256.12 1027.39 257.188C1028.23 258.255 1028.65 259.684 1028.65 261.475V262.139C1028.65 264.704 1028.07 266.66 1026.91 268.008C1025.75 269.355 1024.02 270.039 1021.72 270.059H1021.44V268.096H1021.78C1023.18 268.076 1024.26 267.741 1025.01 267.09C1025.75 266.432 1026.17 265.42 1026.27 264.053ZM1023.98 263.457C1024.46 263.457 1024.9 263.32 1025.32 263.047C1025.74 262.773 1026.06 262.396 1026.29 261.914V260.986C1026.29 259.938 1026.07 259.095 1025.64 258.457C1025.21 257.819 1024.65 257.5 1023.97 257.5C1023.29 257.5 1022.74 257.783 1022.33 258.35C1021.93 258.91 1021.72 259.619 1021.72 260.479C1021.72 261.37 1021.93 262.09 1022.34 262.637C1022.75 263.184 1023.3 263.457 1023.98 263.457ZM1040.37 257.1L1034.68 270H1032.19L1037.87 257.686H1030.51V255.781H1040.37V257.1ZM1051.23 259.531C1051.23 260.228 1051.05 260.85 1050.69 261.396C1050.33 261.937 1049.84 262.363 1049.22 262.676C1049.97 263.021 1050.54 263.493 1050.93 264.092C1051.34 264.691 1051.54 265.368 1051.54 266.123C1051.54 267.373 1051.12 268.366 1050.27 269.102C1049.42 269.831 1048.3 270.195 1046.89 270.195C1045.48 270.195 1044.35 269.827 1043.49 269.092C1042.65 268.356 1042.22 267.367 1042.22 266.123C1042.22 265.361 1042.42 264.678 1042.83 264.072C1043.23 263.467 1043.8 263.001 1044.53 262.676C1043.92 262.363 1043.43 261.937 1043.07 261.396C1042.72 260.85 1042.54 260.228 1042.54 259.531C1042.54 258.32 1042.94 257.36 1043.72 256.65C1044.5 255.941 1045.55 255.586 1046.88 255.586C1048.22 255.586 1049.27 255.941 1050.05 256.65C1050.84 257.36 1051.23 258.32 1051.23 259.531ZM1049.17 266.006C1049.17 265.303 1048.95 264.736 1048.53 264.307C1048.11 263.87 1047.56 263.652 1046.87 263.652C1046.18 263.652 1045.63 263.867 1045.21 264.297C1044.8 264.727 1044.6 265.296 1044.6 266.006C1044.6 266.702 1044.8 267.259 1045.2 267.676C1045.61 268.092 1046.17 268.301 1046.89 268.301C1047.61 268.301 1048.16 268.099 1048.56 267.695C1048.96 267.292 1049.17 266.729 1049.17 266.006ZM1048.86 259.619C1048.86 259.001 1048.68 258.493 1048.33 258.096C1047.97 257.692 1047.49 257.49 1046.88 257.49C1046.28 257.49 1045.8 257.682 1045.45 258.066C1045.09 258.444 1044.92 258.962 1044.92 259.619C1044.92 260.27 1045.09 260.788 1045.45 261.172C1045.8 261.556 1046.29 261.748 1046.89 261.748C1047.5 261.748 1047.97 261.556 1048.33 261.172C1048.68 260.788 1048.86 260.27 1048.86 259.619ZM1058.37 264.375C1058.37 265.82 1058.17 267.217 1057.77 268.564C1057.37 269.906 1056.77 271.126 1055.96 272.227C1055.16 273.333 1054.31 274.098 1053.43 274.521L1052.96 273.203C1053.94 272.448 1054.71 271.296 1055.28 269.746C1055.85 268.19 1056.14 266.416 1056.14 264.424V264.199C1056.14 262.389 1055.89 260.742 1055.4 259.258C1054.9 257.767 1054.19 256.572 1053.27 255.674L1052.96 255.4L1053.43 254.072C1054.27 254.476 1055.07 255.192 1055.86 256.221C1056.64 257.249 1057.24 258.402 1057.65 259.678C1058.07 260.947 1058.3 262.259 1058.36 263.613L1058.37 264.375ZM1073.7 264.932H1075.46V266.836H1073.7V270H1071.32V266.836H1065.18L1065.11 265.391L1071.25 255.781H1073.7V264.932ZM1067.6 264.932H1071.32V258.994L1071.15 259.307L1067.6 264.932ZM1077.67 262.949L1078.44 255.781H1086.08V257.832H1080.42L1080.03 261.23C1080.68 260.853 1081.43 260.664 1082.25 260.664C1083.61 260.664 1084.66 261.097 1085.41 261.963C1086.16 262.829 1086.54 263.994 1086.54 265.459C1086.54 266.904 1086.12 268.057 1085.29 268.916C1084.46 269.769 1083.31 270.195 1081.86 270.195C1080.56 270.195 1079.48 269.827 1078.62 269.092C1077.77 268.35 1077.3 267.373 1077.23 266.162H1079.53C1079.62 266.852 1079.87 267.383 1080.27 267.754C1080.67 268.118 1081.2 268.301 1081.85 268.301C1082.58 268.301 1083.15 268.04 1083.55 267.52C1083.96 266.999 1084.17 266.289 1084.17 265.391C1084.17 264.525 1083.94 263.841 1083.49 263.34C1083.04 262.832 1082.42 262.578 1081.64 262.578C1081.21 262.578 1080.84 262.637 1080.54 262.754C1080.24 262.865 1079.92 263.086 1079.57 263.418L1077.67 262.949ZM1095.79 255.713V257.676H1095.49C1094.17 257.695 1093.1 258.06 1092.31 258.77C1091.52 259.479 1091.04 260.485 1090.89 261.787C1091.66 260.986 1092.63 260.586 1093.81 260.586C1095.07 260.586 1096.06 261.029 1096.78 261.914C1097.51 262.799 1097.88 263.942 1097.88 265.342C1097.88 266.787 1097.45 267.959 1096.6 268.857C1095.75 269.749 1094.64 270.195 1093.26 270.195C1091.84 270.195 1090.69 269.671 1089.8 268.623C1088.92 267.575 1088.48 266.201 1088.48 264.502V263.691C1088.48 261.198 1089.09 259.245 1090.3 257.832C1091.52 256.419 1093.26 255.713 1095.54 255.713H1095.79ZM1093.24 262.5C1092.72 262.5 1092.24 262.646 1091.8 262.939C1091.37 263.232 1091.06 263.623 1090.86 264.111V264.834C1090.86 265.889 1091.08 266.729 1091.52 267.354C1091.96 267.972 1092.54 268.281 1093.24 268.281C1093.94 268.281 1094.5 268.018 1094.91 267.49C1095.32 266.963 1095.52 266.27 1095.52 265.41C1095.52 264.551 1095.32 263.851 1094.9 263.311C1094.48 262.77 1093.93 262.5 1093.24 262.5ZM1104.53 264.912H1099.4V262.998H1104.53V264.912ZM1115.8 257.1L1110.11 270H1107.62L1113.3 257.686H1105.94V255.781H1115.8V257.1ZM1126.66 259.531C1126.66 260.228 1126.48 260.85 1126.12 261.396C1125.76 261.937 1125.27 262.363 1124.65 262.676C1125.4 263.021 1125.97 263.493 1126.36 264.092C1126.77 264.691 1126.97 265.368 1126.97 266.123C1126.97 267.373 1126.55 268.366 1125.7 269.102C1124.85 269.831 1123.73 270.195 1122.32 270.195C1120.91 270.195 1119.77 269.827 1118.92 269.092C1118.08 268.356 1117.65 267.367 1117.65 266.123C1117.65 265.361 1117.85 264.678 1118.26 264.072C1118.66 263.467 1119.23 263.001 1119.96 262.676C1119.35 262.363 1118.86 261.937 1118.5 261.396C1118.15 260.85 1117.97 260.228 1117.97 259.531C1117.97 258.32 1118.37 257.36 1119.15 256.65C1119.93 255.941 1120.98 255.586 1122.31 255.586C1123.65 255.586 1124.7 255.941 1125.48 256.65C1126.27 257.36 1126.66 258.32 1126.66 259.531ZM1124.6 266.006C1124.6 265.303 1124.38 264.736 1123.96 264.307C1123.54 263.87 1122.99 263.652 1122.3 263.652C1121.61 263.652 1121.06 263.867 1120.64 264.297C1120.23 264.727 1120.03 265.296 1120.03 266.006C1120.03 266.702 1120.23 267.259 1120.63 267.676C1121.04 268.092 1121.6 268.301 1122.32 268.301C1123.04 268.301 1123.59 268.099 1123.99 267.695C1124.39 267.292 1124.6 266.729 1124.6 266.006ZM1124.29 259.619C1124.29 259.001 1124.11 258.493 1123.76 258.096C1123.4 257.692 1122.92 257.49 1122.31 257.49C1121.71 257.49 1121.23 257.682 1120.88 258.066C1120.52 258.444 1120.35 258.962 1120.35 259.619C1120.35 260.27 1120.52 260.788 1120.88 261.172C1121.23 261.556 1121.71 261.748 1122.32 261.748C1122.93 261.748 1123.4 261.556 1123.76 261.172C1124.11 260.788 1124.29 260.27 1124.29 259.619ZM1133.82 264.912H1128.7V262.998H1133.82V264.912ZM1142.36 264.053C1141.57 264.893 1140.64 265.312 1139.58 265.312C1138.33 265.312 1137.33 264.876 1136.59 264.004C1135.85 263.125 1135.47 261.973 1135.47 260.547C1135.47 259.609 1135.66 258.76 1136.04 257.998C1136.42 257.236 1136.96 256.644 1137.65 256.221C1138.35 255.798 1139.16 255.586 1140.07 255.586C1141.51 255.586 1142.64 256.12 1143.48 257.188C1144.32 258.255 1144.74 259.684 1144.74 261.475V262.139C1144.74 264.704 1144.16 266.66 1143 268.008C1141.85 269.355 1140.12 270.039 1137.82 270.059H1137.54V268.096H1137.88C1139.28 268.076 1140.35 267.741 1141.1 267.09C1141.85 266.432 1142.27 265.42 1142.36 264.053ZM1140.07 263.457C1140.55 263.457 1141 263.32 1141.41 263.047C1141.83 262.773 1142.15 262.396 1142.38 261.914V260.986C1142.38 259.938 1142.16 259.095 1141.73 258.457C1141.3 257.819 1140.75 257.5 1140.06 257.5C1139.38 257.5 1138.83 257.783 1138.42 258.35C1138.02 258.91 1137.82 259.619 1137.82 260.479C1137.82 261.37 1138.02 262.09 1138.43 262.637C1138.84 263.184 1139.39 263.457 1140.07 263.457ZM1156.27 264.014C1156.27 266.058 1155.88 267.601 1155.11 268.643C1154.35 269.678 1153.19 270.195 1151.63 270.195C1150.09 270.195 1148.93 269.691 1148.15 268.682C1147.38 267.666 1146.98 266.165 1146.96 264.18V261.719C1146.96 259.674 1147.34 258.141 1148.1 257.119C1148.87 256.097 1150.04 255.586 1151.61 255.586C1153.16 255.586 1154.32 256.084 1155.08 257.08C1155.85 258.076 1156.25 259.567 1156.27 261.553V264.014ZM1153.89 261.357C1153.89 260.023 1153.71 259.046 1153.35 258.428C1152.98 257.803 1152.4 257.49 1151.61 257.49C1150.83 257.49 1150.26 257.786 1149.9 258.379C1149.53 258.965 1149.34 259.883 1149.32 261.133V264.355C1149.32 265.684 1149.51 266.673 1149.88 267.324C1150.25 267.975 1150.83 268.301 1151.63 268.301C1152.39 268.301 1152.95 268.001 1153.32 267.402C1153.68 266.797 1153.87 265.853 1153.89 264.57V261.357Z" fill="#FAFAFA"/>
<path d="M993.404 149.689H987.896L986.744 153H984.176L989.547 138.781H991.764L997.145 153H994.566L993.404 149.689ZM988.59 147.697H992.711L990.65 141.799L988.59 147.697ZM998.58 151.105C999.238 150.37 999.677 149.673 999.898 149.016C1000.13 148.352 1000.26 147.505 1000.31 146.477L1000.45 142.434H1007.78V151.105H1009.24V156.145H1006.88V153H1000.1V156.145H997.701L997.711 151.105H998.58ZM1001.36 151.105H1005.42V144.475H1002.75L1002.68 146.496C1002.59 148.436 1002.15 149.973 1001.36 151.105ZM1020.02 147.824C1020.02 149.458 1019.64 150.764 1018.9 151.74C1018.16 152.71 1017.16 153.195 1015.91 153.195C1014.76 153.195 1013.83 152.814 1013.13 152.053V157.062H1010.76V142.434H1012.95L1013.04 143.508C1013.74 142.661 1014.69 142.238 1015.88 142.238C1017.17 142.238 1018.18 142.72 1018.91 143.684C1019.65 144.641 1020.02 145.972 1020.02 147.678V147.824ZM1017.65 147.619C1017.65 146.564 1017.44 145.728 1017.02 145.109C1016.6 144.491 1016 144.182 1015.22 144.182C1014.25 144.182 1013.55 144.582 1013.13 145.383V150.07C1013.56 150.891 1014.26 151.301 1015.24 151.301C1016 151.301 1016.58 150.998 1017.01 150.393C1017.44 149.781 1017.65 148.856 1017.65 147.619ZM1026.69 153.195C1025.18 153.195 1023.96 152.723 1023.02 151.779C1022.09 150.829 1021.63 149.566 1021.63 147.99V147.697C1021.63 146.643 1021.83 145.702 1022.23 144.875C1022.64 144.042 1023.22 143.394 1023.95 142.932C1024.69 142.469 1025.51 142.238 1026.41 142.238C1027.85 142.238 1028.96 142.697 1029.74 143.615C1030.53 144.533 1030.92 145.832 1030.92 147.512V148.469H1024.02C1024.09 149.341 1024.38 150.031 1024.89 150.539C1025.4 151.047 1026.05 151.301 1026.82 151.301C1027.91 151.301 1028.79 150.861 1029.48 149.982L1030.76 151.203C1030.33 151.835 1029.77 152.326 1029.06 152.678C1028.36 153.023 1027.56 153.195 1026.69 153.195ZM1026.4 144.143C1025.75 144.143 1025.22 144.37 1024.82 144.826C1024.42 145.282 1024.17 145.917 1024.06 146.73H1028.58V146.555C1028.53 145.76 1028.32 145.161 1027.95 144.758C1027.57 144.348 1027.06 144.143 1026.4 144.143ZM1037.12 151.301C1037.71 151.301 1038.2 151.128 1038.59 150.783C1038.98 150.438 1039.19 150.012 1039.21 149.504H1041.45C1041.43 150.161 1041.22 150.777 1040.84 151.35C1040.45 151.916 1039.93 152.365 1039.27 152.697C1038.62 153.029 1037.91 153.195 1037.14 153.195C1035.67 153.195 1034.49 152.717 1033.63 151.76C1032.76 150.803 1032.33 149.481 1032.33 147.795V147.551C1032.33 145.943 1032.76 144.657 1033.62 143.693C1034.48 142.723 1035.65 142.238 1037.13 142.238C1038.39 142.238 1039.41 142.606 1040.2 143.342C1041 144.071 1041.41 145.031 1041.45 146.223H1039.21C1039.19 145.617 1038.98 145.119 1038.59 144.729C1038.21 144.338 1037.71 144.143 1037.12 144.143C1036.35 144.143 1035.75 144.423 1035.34 144.982C1034.92 145.536 1034.71 146.379 1034.7 147.512V147.893C1034.7 149.038 1034.91 149.895 1035.32 150.461C1035.74 151.021 1036.33 151.301 1037.12 151.301ZM1044.67 150.5C1045.12 150.5 1045.46 150.627 1045.7 150.881C1045.94 151.128 1046.06 151.441 1046.06 151.818C1046.06 152.189 1045.94 152.499 1045.7 152.746C1045.46 152.987 1045.12 153.107 1044.67 153.107C1044.25 153.107 1043.92 152.987 1043.67 152.746C1043.42 152.505 1043.3 152.196 1043.3 151.818C1043.3 151.441 1043.42 151.128 1043.66 150.881C1043.9 150.627 1044.24 150.5 1044.67 150.5ZM1044.67 142.209C1045.12 142.209 1045.46 142.336 1045.7 142.59C1045.94 142.837 1046.06 143.15 1046.06 143.527C1046.06 143.898 1045.94 144.208 1045.7 144.455C1045.46 144.696 1045.12 144.816 1044.67 144.816C1044.25 144.816 1043.92 144.696 1043.67 144.455C1043.42 144.214 1043.3 143.905 1043.3 143.527C1043.3 143.15 1043.42 142.837 1043.66 142.59C1043.9 142.336 1044.24 142.209 1044.67 142.209ZM992.252 167.348H987.662V176H985.299V165.434H992.252V167.348ZM995.074 173.5C995.517 173.5 995.859 173.627 996.1 173.881C996.34 174.128 996.461 174.441 996.461 174.818C996.461 175.189 996.34 175.499 996.1 175.746C995.859 175.987 995.517 176.107 995.074 176.107C994.651 176.107 994.316 175.987 994.068 175.746C993.821 175.505 993.697 175.196 993.697 174.818C993.697 174.441 993.818 174.128 994.059 173.881C994.299 173.627 994.638 173.5 995.074 173.5ZM1015.24 171.371C1015.1 172.888 1014.54 174.073 1013.56 174.926C1012.58 175.772 1011.29 176.195 1009.66 176.195C1008.53 176.195 1007.53 175.928 1006.67 175.395C1005.81 174.854 1005.14 174.089 1004.67 173.1C1004.21 172.11 1003.96 170.961 1003.94 169.652V168.324C1003.94 166.983 1004.18 165.801 1004.65 164.779C1005.13 163.757 1005.81 162.969 1006.7 162.416C1007.59 161.863 1008.62 161.586 1009.78 161.586C1011.35 161.586 1012.61 162.012 1013.57 162.865C1014.53 163.718 1015.08 164.923 1015.24 166.479H1012.78C1012.66 165.456 1012.36 164.721 1011.88 164.271C1011.41 163.816 1010.71 163.588 1009.78 163.588C1008.71 163.588 1007.88 163.982 1007.3 164.77C1006.73 165.551 1006.43 166.7 1006.42 168.217V169.477C1006.42 171.013 1006.7 172.185 1007.24 172.992C1007.8 173.799 1008.6 174.203 1009.66 174.203C1010.63 174.203 1011.36 173.985 1011.85 173.549C1012.34 173.113 1012.65 172.387 1012.78 171.371H1015.24ZM1021.88 176.195C1020.38 176.195 1019.16 175.723 1018.22 174.779C1017.29 173.829 1016.82 172.566 1016.82 170.99V170.697C1016.82 169.643 1017.02 168.702 1017.43 167.875C1017.84 167.042 1018.41 166.394 1019.15 165.932C1019.88 165.469 1020.7 165.238 1021.61 165.238C1023.05 165.238 1024.16 165.697 1024.94 166.615C1025.73 167.533 1026.12 168.832 1026.12 170.512V171.469H1019.21C1019.29 172.341 1019.58 173.031 1020.08 173.539C1020.6 174.047 1021.24 174.301 1022.02 174.301C1023.1 174.301 1023.99 173.861 1024.67 172.982L1025.95 174.203C1025.53 174.835 1024.96 175.326 1024.25 175.678C1023.55 176.023 1022.76 176.195 1021.88 176.195ZM1021.6 167.143C1020.95 167.143 1020.42 167.37 1020.02 167.826C1019.62 168.282 1019.36 168.917 1019.25 169.73H1023.78V169.555C1023.72 168.76 1023.51 168.161 1023.14 167.758C1022.77 167.348 1022.26 167.143 1021.6 167.143ZM1028.15 176V165.434H1032.44C1033.88 165.434 1034.98 165.688 1035.74 166.195C1036.49 166.697 1036.87 167.419 1036.87 168.363C1036.87 168.852 1036.72 169.291 1036.41 169.682C1036.11 170.066 1035.67 170.362 1035.07 170.57C1035.76 170.714 1036.31 171.003 1036.71 171.439C1037.12 171.876 1037.32 172.39 1037.32 172.982C1037.32 173.965 1036.96 174.714 1036.23 175.229C1035.5 175.743 1034.46 176 1033.1 176H1028.15ZM1030.52 171.498V174.125H1033.12C1034.34 174.125 1034.95 173.689 1034.95 172.816C1034.95 171.938 1034.33 171.498 1033.09 171.498H1030.52ZM1030.52 169.799H1032.48C1033.82 169.799 1034.5 169.402 1034.5 168.607C1034.5 167.774 1033.86 167.344 1032.58 167.318H1030.52V169.799ZM1045.69 176C1045.59 175.798 1045.49 175.469 1045.42 175.014C1044.66 175.801 1043.74 176.195 1042.64 176.195C1041.58 176.195 1040.72 175.893 1040.04 175.287C1039.37 174.682 1039.04 173.933 1039.04 173.041C1039.04 171.915 1039.46 171.052 1040.29 170.453C1041.13 169.848 1042.33 169.545 1043.88 169.545H1045.34V168.852C1045.34 168.305 1045.18 167.868 1044.88 167.543C1044.57 167.211 1044.11 167.045 1043.48 167.045C1042.94 167.045 1042.5 167.182 1042.15 167.455C1041.81 167.722 1041.64 168.064 1041.64 168.48H1039.26C1039.26 167.901 1039.46 167.361 1039.84 166.859C1040.22 166.352 1040.74 165.954 1041.4 165.668C1042.07 165.382 1042.81 165.238 1043.62 165.238C1044.86 165.238 1045.84 165.551 1046.58 166.176C1047.31 166.794 1047.69 167.667 1047.71 168.793V173.559C1047.71 174.509 1047.84 175.268 1048.11 175.834V176H1045.69ZM1043.08 174.291C1043.55 174.291 1043.99 174.177 1044.4 173.949C1044.82 173.721 1045.13 173.415 1045.34 173.031V171.039H1044.06C1043.18 171.039 1042.52 171.192 1042.08 171.498C1041.63 171.804 1041.41 172.237 1041.41 172.797C1041.41 173.253 1041.56 173.617 1041.86 173.891C1042.17 174.158 1042.57 174.291 1043.08 174.291ZM1054.54 174.301C1055.13 174.301 1055.62 174.128 1056.01 173.783C1056.4 173.438 1056.61 173.012 1056.64 172.504H1058.87C1058.85 173.161 1058.64 173.777 1058.26 174.35C1057.87 174.916 1057.35 175.365 1056.7 175.697C1056.04 176.029 1055.33 176.195 1054.57 176.195C1053.09 176.195 1051.92 175.717 1051.05 174.76C1050.18 173.803 1049.75 172.481 1049.75 170.795V170.551C1049.75 168.943 1050.18 167.657 1051.04 166.693C1051.9 165.723 1053.07 165.238 1054.56 165.238C1055.81 165.238 1056.84 165.606 1057.62 166.342C1058.42 167.071 1058.83 168.031 1058.87 169.223H1056.64C1056.61 168.617 1056.4 168.119 1056.01 167.729C1055.63 167.338 1055.14 167.143 1054.54 167.143C1053.77 167.143 1053.18 167.423 1052.76 167.982C1052.34 168.536 1052.13 169.379 1052.12 170.512V170.893C1052.12 172.038 1052.33 172.895 1052.74 173.461C1053.16 174.021 1053.76 174.301 1054.54 174.301ZM1068.98 167.318H1065.55V176H1063.18V167.318H1059.79V165.434H1068.98V167.318ZM1069.83 170.619C1069.83 169.584 1070.04 168.653 1070.45 167.826C1070.86 166.993 1071.43 166.355 1072.17 165.912C1072.92 165.463 1073.77 165.238 1074.73 165.238C1076.16 165.238 1077.31 165.697 1078.2 166.615C1079.09 167.533 1079.57 168.751 1079.64 170.268L1079.65 170.824C1079.65 171.866 1079.45 172.797 1079.05 173.617C1078.65 174.438 1078.08 175.072 1077.33 175.521C1076.59 175.971 1075.73 176.195 1074.75 176.195C1073.26 176.195 1072.07 175.701 1071.17 174.711C1070.28 173.715 1069.83 172.39 1069.83 170.736V170.619ZM1072.2 170.824C1072.2 171.911 1072.43 172.764 1072.88 173.383C1073.33 173.995 1073.95 174.301 1074.75 174.301C1075.55 174.301 1076.17 173.988 1076.62 173.363C1077.07 172.738 1077.29 171.824 1077.29 170.619C1077.29 169.551 1077.06 168.705 1076.6 168.08C1076.14 167.455 1075.52 167.143 1074.73 167.143C1073.96 167.143 1073.34 167.452 1072.89 168.07C1072.43 168.682 1072.2 169.6 1072.2 170.824ZM1090.62 176H1088.25V167.348H1084.13V176H1081.75V165.434H1090.62V176ZM1092.7 170.619C1092.7 169.584 1092.91 168.653 1093.32 167.826C1093.73 166.993 1094.3 166.355 1095.04 165.912C1095.79 165.463 1096.64 165.238 1097.6 165.238C1099.03 165.238 1100.18 165.697 1101.07 166.615C1101.96 167.533 1102.44 168.751 1102.52 170.268L1102.53 170.824C1102.53 171.866 1102.32 172.797 1101.92 173.617C1101.52 174.438 1100.95 175.072 1100.2 175.521C1099.46 175.971 1098.6 176.195 1097.62 176.195C1096.13 176.195 1094.94 175.701 1094.04 174.711C1093.15 173.715 1092.7 172.39 1092.7 170.736V170.619ZM1095.07 170.824C1095.07 171.911 1095.3 172.764 1095.75 173.383C1096.2 173.995 1096.82 174.301 1097.62 174.301C1098.42 174.301 1099.05 173.988 1099.49 173.363C1099.94 172.738 1100.16 171.824 1100.16 170.619C1100.16 169.551 1099.93 168.705 1099.47 168.08C1099.01 167.455 1098.39 167.143 1097.6 167.143C1096.83 167.143 1096.21 167.452 1095.76 168.07C1095.3 168.682 1095.07 169.6 1095.07 170.824ZM1113.36 165.434V176H1110.98V167.348H1107.99L1107.8 171.029C1107.68 172.8 1107.33 174.073 1106.77 174.848C1106.22 175.616 1105.37 176 1104.22 176H1103.49L1103.48 174.027L1103.97 173.979C1104.49 173.907 1104.87 173.591 1105.1 173.031C1105.34 172.465 1105.5 171.436 1105.56 169.945L1105.76 165.434H1113.36ZM1118.43 168.793H1120.76C1121.62 168.793 1122.38 168.943 1123.02 169.242C1123.67 169.542 1124.16 169.962 1124.49 170.502C1124.83 171.042 1125 171.671 1125 172.387C1125 173.474 1124.61 174.346 1123.84 175.004C1123.08 175.661 1122.05 175.993 1120.78 176H1116.06V165.434H1118.43V168.793ZM1118.43 170.697V174.105H1120.75C1121.33 174.105 1121.78 173.962 1122.12 173.676C1122.45 173.383 1122.62 172.969 1122.62 172.436C1122.62 171.902 1122.46 171.482 1122.12 171.176C1121.8 170.863 1121.36 170.704 1120.8 170.697H1118.43ZM1127.23 179.203L1125.95 178.441C1126.33 177.849 1126.59 177.331 1126.72 176.889C1126.87 176.452 1126.94 176.007 1126.95 175.551V173.705H1129.09L1129.08 175.414C1129.07 176.104 1128.9 176.794 1128.55 177.484C1128.21 178.181 1127.77 178.754 1127.23 179.203ZM988.912 195.602L991.061 188.434H993.59L989.391 200.602C988.746 202.379 987.652 203.268 986.109 203.268C985.764 203.268 985.383 203.209 984.967 203.092V201.256L985.416 201.285C986.015 201.285 986.464 201.174 986.764 200.953C987.07 200.738 987.311 200.374 987.486 199.859L987.828 198.951L984.117 188.434H986.676L988.912 195.602ZM1003.53 188.434V199H1001.16V190.348H998.17L997.975 194.029C997.851 195.8 997.509 197.073 996.949 197.848C996.396 198.616 995.546 199 994.4 199H993.668L993.658 197.027L994.146 196.979C994.667 196.907 995.045 196.591 995.279 196.031C995.52 195.465 995.673 194.436 995.738 192.945L995.934 188.434H1003.53ZM1007.54 196.5C1007.98 196.5 1008.32 196.627 1008.56 196.881C1008.8 197.128 1008.92 197.441 1008.92 197.818C1008.92 198.189 1008.8 198.499 1008.56 198.746C1008.32 198.987 1007.98 199.107 1007.54 199.107C1007.11 199.107 1006.78 198.987 1006.53 198.746C1006.28 198.505 1006.16 198.196 1006.16 197.818C1006.16 197.441 1006.28 197.128 1006.52 196.881C1006.76 196.627 1007.1 196.5 1007.54 196.5ZM1021.06 192.906H1019.38V199H1016.92V184.781H1019.38V190.758H1020.74L1024.92 184.781H1027.95L1023.06 191.588L1028.38 199H1025.41L1021.06 192.906ZM1028.79 193.619C1028.79 192.584 1029 191.653 1029.41 190.826C1029.82 189.993 1030.4 189.355 1031.14 188.912C1031.88 188.463 1032.73 188.238 1033.7 188.238C1035.12 188.238 1036.28 188.697 1037.16 189.615C1038.06 190.533 1038.54 191.751 1038.61 193.268L1038.62 193.824C1038.62 194.866 1038.42 195.797 1038.01 196.617C1037.62 197.438 1037.04 198.072 1036.29 198.521C1035.55 198.971 1034.69 199.195 1033.72 199.195C1032.23 199.195 1031.03 198.701 1030.13 197.711C1029.24 196.715 1028.79 195.39 1028.79 193.736V193.619ZM1031.17 193.824C1031.17 194.911 1031.39 195.764 1031.84 196.383C1032.29 196.995 1032.92 197.301 1033.72 197.301C1034.52 197.301 1035.14 196.988 1035.58 196.363C1036.03 195.738 1036.26 194.824 1036.26 193.619C1036.26 192.551 1036.02 191.705 1035.56 191.08C1035.11 190.455 1034.49 190.143 1033.7 190.143C1032.92 190.143 1032.31 190.452 1031.85 191.07C1031.4 191.682 1031.17 192.6 1031.17 193.824ZM1046.9 196.08L1050.03 188.434H1052.99V199H1050.62V192.008L1047.71 199H1046.1L1043.18 191.969V199H1040.81V188.434H1043.79L1046.9 196.08ZM1060.64 189.02C1061.97 189.02 1063.03 189.465 1063.83 190.357C1064.63 191.243 1065.04 192.447 1065.04 193.971V194.088C1065.04 195.611 1064.6 196.845 1063.73 197.789C1062.86 198.733 1061.68 199.205 1060.19 199.205C1058.74 199.205 1057.57 198.723 1056.68 197.76C1055.78 196.796 1055.34 195.481 1055.34 193.814V193.131C1055.34 190.852 1055.74 189.049 1056.55 187.721C1057.36 186.393 1058.56 185.562 1060.16 185.23C1061.06 185.048 1061.64 184.856 1061.9 184.654C1062.17 184.446 1062.3 184.166 1062.3 183.814H1064.21C1064.21 184.472 1064.11 185.006 1063.89 185.416C1063.68 185.826 1063.35 186.161 1062.91 186.422C1062.46 186.676 1061.7 186.917 1060.62 187.145C1059.63 187.353 1058.88 187.724 1058.36 188.258C1057.84 188.792 1057.5 189.531 1057.32 190.475C1058.26 189.505 1059.37 189.02 1060.64 189.02ZM1060.17 190.924C1059.4 190.924 1058.8 191.184 1058.37 191.705C1057.93 192.219 1057.71 193.014 1057.71 194.088C1057.71 195.104 1057.93 195.895 1058.36 196.461C1058.79 197.027 1059.4 197.311 1060.19 197.311C1060.98 197.311 1061.59 197.027 1062.02 196.461C1062.45 195.888 1062.67 195.029 1062.67 193.883C1062.67 192.971 1062.45 192.252 1062.02 191.725C1061.59 191.191 1060.97 190.924 1060.17 190.924ZM1075.97 193.824C1075.97 195.458 1075.6 196.764 1074.86 197.74C1074.12 198.71 1073.12 199.195 1071.87 199.195C1070.71 199.195 1069.78 198.814 1069.09 198.053V203.062H1066.71V188.434H1068.9L1069 189.508C1069.7 188.661 1070.64 188.238 1071.84 188.238C1073.13 188.238 1074.14 188.72 1074.87 189.684C1075.6 190.641 1075.97 191.972 1075.97 193.678V193.824ZM1073.61 193.619C1073.61 192.564 1073.4 191.728 1072.97 191.109C1072.56 190.491 1071.96 190.182 1071.18 190.182C1070.21 190.182 1069.51 190.582 1069.09 191.383V196.07C1069.52 196.891 1070.22 197.301 1071.2 197.301C1071.95 197.301 1072.54 196.998 1072.96 196.393C1073.39 195.781 1073.61 194.856 1073.61 193.619ZM1084.59 188.434H1086.95V199H1084.59V191.949L1080.45 199H1078.08V188.434H1080.45V195.484L1084.59 188.434ZM1096.51 190.348H1091.92V199H1089.56V188.434H1096.51V190.348ZM1104.17 199C1104.06 198.798 1103.97 198.469 1103.89 198.014C1103.14 198.801 1102.21 199.195 1101.12 199.195C1100.06 199.195 1099.19 198.893 1098.52 198.287C1097.85 197.682 1097.52 196.933 1097.52 196.041C1097.52 194.915 1097.93 194.052 1098.77 193.453C1099.61 192.848 1100.8 192.545 1102.36 192.545H1103.81V191.852C1103.81 191.305 1103.66 190.868 1103.36 190.543C1103.05 190.211 1102.58 190.045 1101.96 190.045C1101.42 190.045 1100.98 190.182 1100.63 190.455C1100.29 190.722 1100.11 191.064 1100.11 191.48H1097.74C1097.74 190.901 1097.93 190.361 1098.32 189.859C1098.7 189.352 1099.22 188.954 1099.88 188.668C1100.54 188.382 1101.28 188.238 1102.1 188.238C1103.33 188.238 1104.32 188.551 1105.05 189.176C1105.79 189.794 1106.17 190.667 1106.19 191.793V196.559C1106.19 197.509 1106.32 198.268 1106.59 198.834V199H1104.17ZM1101.56 197.291C1102.03 197.291 1102.47 197.177 1102.88 196.949C1103.29 196.721 1103.61 196.415 1103.81 196.031V194.039H1102.54C1101.66 194.039 1101 194.192 1100.55 194.498C1100.11 194.804 1099.89 195.237 1099.89 195.797C1099.89 196.253 1100.04 196.617 1100.34 196.891C1100.64 197.158 1101.05 197.291 1101.56 197.291ZM1125.13 199H1122.67V186.773H1116.41V199H1113.95V184.781H1125.13V199ZM1127.45 193.619C1127.45 192.584 1127.65 191.653 1128.06 190.826C1128.47 189.993 1129.05 189.355 1129.79 188.912C1130.53 188.463 1131.39 188.238 1132.35 188.238C1133.78 188.238 1134.93 188.697 1135.82 189.615C1136.71 190.533 1137.19 191.751 1137.26 193.268L1137.27 193.824C1137.27 194.866 1137.07 195.797 1136.67 196.617C1136.27 197.438 1135.7 198.072 1134.95 198.521C1134.21 198.971 1133.35 199.195 1132.37 199.195C1130.88 199.195 1129.68 198.701 1128.79 197.711C1127.89 196.715 1127.45 195.39 1127.45 193.736V193.619ZM1129.82 193.824C1129.82 194.911 1130.04 195.764 1130.49 196.383C1130.94 196.995 1131.57 197.301 1132.37 197.301C1133.17 197.301 1133.79 196.988 1134.23 196.363C1134.68 195.738 1134.91 194.824 1134.91 193.619C1134.91 192.551 1134.68 191.705 1134.21 191.08C1133.76 190.455 1133.14 190.143 1132.35 190.143C1131.57 190.143 1130.96 190.452 1130.5 191.07C1130.05 191.682 1129.82 192.6 1129.82 193.824ZM1147.3 190.318H1143.87V199H1141.5V190.318H1138.11V188.434H1147.3V190.318ZM1155.04 199C1154.94 198.798 1154.85 198.469 1154.77 198.014C1154.02 198.801 1153.09 199.195 1152 199.195C1150.94 199.195 1150.07 198.893 1149.4 198.287C1148.73 197.682 1148.39 196.933 1148.39 196.041C1148.39 194.915 1148.81 194.052 1149.64 193.453C1150.48 192.848 1151.68 192.545 1153.24 192.545H1154.69V191.852C1154.69 191.305 1154.54 190.868 1154.23 190.543C1153.93 190.211 1153.46 190.045 1152.84 190.045C1152.3 190.045 1151.85 190.182 1151.51 190.455C1151.16 190.722 1150.99 191.064 1150.99 191.48H1148.62C1148.62 190.901 1148.81 190.361 1149.2 189.859C1149.58 189.352 1150.1 188.954 1150.76 188.668C1151.42 188.382 1152.16 188.238 1152.97 188.238C1154.21 188.238 1155.2 188.551 1155.93 189.176C1156.67 189.794 1157.05 190.667 1157.07 191.793V196.559C1157.07 197.509 1157.2 198.268 1157.47 198.834V199H1155.04ZM1152.44 197.291C1152.91 197.291 1153.35 197.177 1153.76 196.949C1154.17 196.721 1154.49 196.415 1154.69 196.031V194.039H1153.41C1152.54 194.039 1151.87 194.192 1151.43 194.498C1150.99 194.804 1150.77 195.237 1150.77 195.797C1150.77 196.253 1150.92 196.617 1151.22 196.891C1151.52 197.158 1151.93 197.291 1152.44 197.291ZM1168.51 199H1166.14V190.348H1162.02V199H1159.64V188.434H1168.51V199ZM1170.59 193.619C1170.59 192.584 1170.8 191.653 1171.21 190.826C1171.62 189.993 1172.19 189.355 1172.94 188.912C1173.68 188.463 1174.53 188.238 1175.49 188.238C1176.92 188.238 1178.08 188.697 1178.96 189.615C1179.85 190.533 1180.33 191.751 1180.41 193.268L1180.42 193.824C1180.42 194.866 1180.21 195.797 1179.81 196.617C1179.41 197.438 1178.84 198.072 1178.09 198.521C1177.35 198.971 1176.49 199.195 1175.51 199.195C1174.02 199.195 1172.83 198.701 1171.93 197.711C1171.04 196.715 1170.59 195.39 1170.59 193.736V193.619ZM1172.96 193.824C1172.96 194.911 1173.19 195.764 1173.64 196.383C1174.09 196.995 1174.71 197.301 1175.51 197.301C1176.31 197.301 1176.94 196.988 1177.38 196.363C1177.83 195.738 1178.05 194.824 1178.05 193.619C1178.05 192.551 1177.82 191.705 1177.36 191.08C1176.9 190.455 1176.28 190.143 1175.49 190.143C1174.72 190.143 1174.1 190.452 1173.65 191.07C1173.19 191.682 1172.96 192.6 1172.96 193.824ZM1182.6 199V188.434H1186.89C1188.34 188.434 1189.44 188.688 1190.19 189.195C1190.95 189.697 1191.32 190.419 1191.32 191.363C1191.32 191.852 1191.17 192.291 1190.87 192.682C1190.57 193.066 1190.12 193.362 1189.53 193.57C1190.22 193.714 1190.76 194.003 1191.17 194.439C1191.57 194.876 1191.77 195.39 1191.77 195.982C1191.77 196.965 1191.41 197.714 1190.68 198.229C1189.96 198.743 1188.92 199 1187.55 199H1182.6ZM1184.98 194.498V197.125H1187.57C1188.79 197.125 1189.4 196.689 1189.4 195.816C1189.4 194.938 1188.78 194.498 1187.54 194.498H1184.98ZM1184.98 192.799H1186.93C1188.28 192.799 1188.95 192.402 1188.95 191.607C1188.95 190.774 1188.31 190.344 1187.04 190.318H1184.98V192.799ZM1200.14 199C1200.04 198.798 1199.95 198.469 1199.87 198.014C1199.11 198.801 1198.19 199.195 1197.1 199.195C1196.03 199.195 1195.17 198.893 1194.5 198.287C1193.83 197.682 1193.49 196.933 1193.49 196.041C1193.49 194.915 1193.91 194.052 1194.74 193.453C1195.58 192.848 1196.78 192.545 1198.34 192.545H1199.79V191.852C1199.79 191.305 1199.64 190.868 1199.33 190.543C1199.03 190.211 1198.56 190.045 1197.94 190.045C1197.4 190.045 1196.95 190.182 1196.61 190.455C1196.26 190.722 1196.09 191.064 1196.09 191.48H1193.72C1193.72 190.901 1193.91 190.361 1194.29 189.859C1194.68 189.352 1195.2 188.954 1195.86 188.668C1196.52 188.382 1197.26 188.238 1198.07 188.238C1199.31 188.238 1200.3 188.551 1201.03 189.176C1201.77 189.794 1202.14 190.667 1202.16 191.793V196.559C1202.16 197.509 1202.3 198.268 1202.56 198.834V199H1200.14ZM1197.54 197.291C1198 197.291 1198.44 197.177 1198.85 196.949C1199.27 196.721 1199.58 196.415 1199.79 196.031V194.039H1198.51C1197.63 194.039 1196.97 194.192 1196.53 194.498C1196.09 194.804 1195.87 195.237 1195.87 195.797C1195.87 196.253 1196.01 196.617 1196.31 196.891C1196.62 197.158 1197.03 197.291 1197.54 197.291ZM1204.99 202.203L1203.71 201.441C1204.08 200.849 1204.34 200.331 1204.48 199.889C1204.62 199.452 1204.7 199.007 1204.7 198.551V196.705H1206.84L1206.83 198.414C1206.83 199.104 1206.65 199.794 1206.3 200.484C1205.97 201.181 1205.53 201.754 1204.99 202.203ZM1220.3 199H1217.94V187.584L1214.45 188.775V186.773L1220 184.732H1220.3V199ZM1233.27 193.932H1235.04V195.836H1233.27V199H1230.89V195.836H1224.75L1224.68 194.391L1230.82 184.781H1233.27V193.932ZM1227.17 193.932H1230.89V187.994L1230.72 188.307L1227.17 193.932Z" fill="#FAFAFA"/>
<path d="M950.719 158.109C950.094 157.198 949.378 156.169 948.57 155.023C947.789 153.878 947.229 153.07 946.891 152.602C946.552 152.133 946.161 151.56 945.719 150.883C945.276 150.18 944.977 149.685 944.82 149.398C944.69 149.112 944.534 148.747 944.352 148.305C944.195 147.862 944.091 147.484 944.039 147.172C944.013 146.833 944 146.443 944 146C944 143.917 944.729 142.146 946.188 140.688C947.646 139.229 949.417 138.5 951.5 138.5C953.583 138.5 955.354 139.229 956.812 140.688C958.271 142.146 959 143.917 959 146C959 146.443 958.974 146.833 958.922 147.172C958.896 147.484 958.792 147.862 958.609 148.305C958.453 148.747 958.297 149.112 958.141 149.398C958.01 149.685 957.724 150.18 957.281 150.883C956.839 151.56 956.448 152.133 956.109 152.602C955.771 153.07 955.198 153.878 954.391 155.023C953.609 156.169 952.906 157.198 952.281 158.109C952.099 158.37 951.839 158.5 951.5 158.5C951.161 158.5 950.901 158.37 950.719 158.109ZM949.273 148.227C949.898 148.826 950.641 149.125 951.5 149.125C952.359 149.125 953.089 148.826 953.688 148.227C954.312 147.602 954.625 146.859 954.625 146C954.625 145.141 954.312 144.411 953.688 143.812C953.089 143.188 952.359 142.875 951.5 142.875C950.641 142.875 949.898 143.188 949.273 143.812C948.674 144.411 948.375 145.141 948.375 146C948.375 146.859 948.674 147.602 949.273 148.227Z" fill="#F2994A"/>
<path d="M963.414 244.641C963.805 244.797 964 245.083 964 245.5C964 245.578 963.987 245.643 963.961 245.695L963.023 249.758C962.997 249.888 962.932 250.005 962.828 250.109C962.75 250.24 962.646 250.331 962.516 250.383C962.385 250.461 962.255 250.5 962.125 250.5C957.125 250.5 952.854 248.729 949.312 245.188C945.771 241.646 944 237.375 944 232.375C944 232.245 944.026 232.115 944.078 231.984C944.156 231.854 944.247 231.75 944.352 231.672C944.482 231.568 944.612 231.503 944.742 231.477L948.805 230.539C948.857 230.513 948.922 230.5 949 230.5C949.417 230.5 949.703 230.695 949.859 231.086L951.734 235.461C951.786 235.565 951.812 235.682 951.812 235.812C951.812 236.099 951.695 236.346 951.461 236.555L949.117 238.469C949.716 239.771 950.693 241.099 952.047 242.453C953.401 243.807 954.729 244.784 956.031 245.383L957.945 243.039C958.154 242.805 958.401 242.688 958.688 242.688C958.818 242.688 958.935 242.714 959.039 242.766L963.414 244.641Z" fill="#F2994A"/>
<path d="M947.125 305.664C949.026 303.763 951.318 302.812 954 302.812C956.682 302.812 958.961 303.763 960.836 305.664C962.737 307.539 963.688 309.818 963.688 312.5C963.688 315.182 962.737 317.474 960.836 319.375C958.961 321.25 956.682 322.188 954 322.188C951.318 322.188 949.026 321.25 947.125 319.375C945.25 317.474 944.312 315.182 944.312 312.5C944.312 309.818 945.25 307.539 947.125 305.664ZM956.227 316.484C956.487 316.667 956.708 316.641 956.891 316.406L957.984 314.883C958.167 314.622 958.141 314.401 957.906 314.219L955.406 312.422V307.031C955.406 306.719 955.25 306.562 954.938 306.562H953.062C952.75 306.562 952.594 306.719 952.594 307.031V313.594C952.594 313.75 952.659 313.88 952.789 313.984L956.227 316.484Z" fill="#F2994A"/>
<rect x="944" y="101" width="60" height="2" fill="#F2994A"/>
<path d="M971.72 76.986C971.72 78.894 971.402 80.664 970.766 82.296C970.142 83.916 969.254 85.32 968.102 86.508C966.95 87.696 965.564 88.626 963.944 89.298C962.324 89.958 960.524 90.288 958.544 90.288C956.576 90.288 954.782 89.958 953.162 89.298C951.542 88.626 950.15 87.696 948.986 86.508C947.834 85.32 946.94 83.916 946.304 82.296C945.668 80.664 945.35 78.894 945.35 76.986C945.35 75.078 945.668 73.314 946.304 71.694C946.94 70.062 947.834 68.652 948.986 67.464C950.15 66.276 951.542 65.352 953.162 64.692C954.782 64.02 956.576 63.684 958.544 63.684C959.864 63.684 961.106 63.84 962.27 64.152C963.434 64.452 964.502 64.884 965.474 65.448C966.446 66 967.316 66.678 968.084 67.482C968.864 68.274 969.524 69.162 970.064 70.146C970.604 71.13 971.012 72.198 971.288 73.35C971.576 74.502 971.72 75.714 971.72 76.986ZM966.77 76.986C966.77 75.558 966.578 74.28 966.194 73.152C965.81 72.012 965.264 71.046 964.556 70.254C963.848 69.462 962.984 68.856 961.964 68.436C960.956 68.016 959.816 67.806 958.544 67.806C957.272 67.806 956.126 68.016 955.106 68.436C954.098 68.856 953.234 69.462 952.514 70.254C951.806 71.046 951.26 72.012 950.876 73.152C950.492 74.28 950.3 75.558 950.3 76.986C950.3 78.414 950.492 79.698 950.876 80.838C951.26 81.966 951.806 82.926 952.514 83.718C953.234 84.498 954.098 85.098 955.106 85.518C956.126 85.938 957.272 86.148 958.544 86.148C959.816 86.148 960.956 85.938 961.964 85.518C962.984 85.098 963.848 84.498 964.556 83.718C965.264 82.926 965.81 81.966 966.194 80.838C966.578 79.698 966.77 78.414 966.77 76.986ZM1000.79 76.986C1000.79 78.894 1000.48 80.664 999.84 82.296C999.216 83.916 998.328 85.32 997.176 86.508C996.024 87.696 994.638 88.626 993.018 89.298C991.398 89.958 989.598 90.288 987.618 90.288C985.65 90.288 983.856 89.958 982.236 89.298C980.616 88.626 979.224 87.696 978.06 86.508C976.908 85.32 976.014 83.916 975.378 82.296C974.742 80.664 974.424 78.894 974.424 76.986C974.424 75.078 974.742 73.314 975.378 71.694C976.014 70.062 976.908 68.652 978.06 67.464C979.224 66.276 980.616 65.352 982.236 64.692C983.856 64.02 985.65 63.684 987.618 63.684C988.938 63.684 990.18 63.84 991.344 64.152C992.508 64.452 993.576 64.884 994.548 65.448C995.52 66 996.39 66.678 997.158 67.482C997.938 68.274 998.598 69.162 999.138 70.146C999.678 71.13 1000.09 72.198 1000.36 73.35C1000.65 74.502 1000.79 75.714 1000.79 76.986ZM995.844 76.986C995.844 75.558 995.652 74.28 995.268 73.152C994.884 72.012 994.338 71.046 993.63 70.254C992.922 69.462 992.058 68.856 991.038 68.436C990.03 68.016 988.89 67.806 987.618 67.806C986.346 67.806 985.2 68.016 984.18 68.436C983.172 68.856 982.308 69.462 981.588 70.254C980.88 71.046 980.334 72.012 979.95 73.152C979.566 74.28 979.374 75.558 979.374 76.986C979.374 78.414 979.566 79.698 979.95 80.838C980.334 81.966 980.88 82.926 981.588 83.718C982.308 84.498 983.172 85.098 984.18 85.518C985.2 85.938 986.346 86.148 987.618 86.148C988.89 86.148 990.03 85.938 991.038 85.518C992.058 85.098 992.922 84.498 993.63 83.718C994.338 82.926 994.884 81.966 995.268 80.838C995.652 79.698 995.844 78.414 995.844 76.986ZM1029.87 76.986C1029.87 78.894 1029.55 80.664 1028.91 82.296C1028.29 83.916 1027.4 85.32 1026.25 86.508C1025.1 87.696 1023.71 88.626 1022.09 89.298C1020.47 89.958 1018.67 90.288 1016.69 90.288C1014.72 90.288 1012.93 89.958 1011.31 89.298C1009.69 88.626 1008.3 87.696 1007.13 86.508C1005.98 85.32 1005.09 83.916 1004.45 82.296C1003.82 80.664 1003.5 78.894 1003.5 76.986C1003.5 75.078 1003.82 73.314 1004.45 71.694C1005.09 70.062 1005.98 68.652 1007.13 67.464C1008.3 66.276 1009.69 65.352 1011.31 64.692C1012.93 64.02 1014.72 63.684 1016.69 63.684C1018.01 63.684 1019.25 63.84 1020.42 64.152C1021.58 64.452 1022.65 64.884 1023.62 65.448C1024.59 66 1025.46 66.678 1026.23 67.482C1027.01 68.274 1027.67 69.162 1028.21 70.146C1028.75 71.13 1029.16 72.198 1029.44 73.35C1029.72 74.502 1029.87 75.714 1029.87 76.986ZM1024.92 76.986C1024.92 75.558 1024.73 74.28 1024.34 73.152C1023.96 72.012 1023.41 71.046 1022.7 70.254C1022 69.462 1021.13 68.856 1020.11 68.436C1019.1 68.016 1017.96 67.806 1016.69 67.806C1015.42 67.806 1014.27 68.016 1013.25 68.436C1012.25 68.856 1011.38 69.462 1010.66 70.254C1009.95 71.046 1009.41 72.012 1009.02 73.152C1008.64 74.28 1008.45 75.558 1008.45 76.986C1008.45 78.414 1008.64 79.698 1009.02 80.838C1009.41 81.966 1009.95 82.926 1010.66 83.718C1011.38 84.498 1012.25 85.098 1013.25 85.518C1014.27 85.938 1015.42 86.148 1016.69 86.148C1017.96 86.148 1019.1 85.938 1020.11 85.518C1021.13 85.098 1022 84.498 1022.7 83.718C1023.41 82.926 1023.96 81.966 1024.34 80.838C1024.73 79.698 1024.92 78.414 1024.92 76.986ZM1064.96 90H1060.57C1060.11 90 1059.73 89.88 1059.42 89.64C1059.12 89.4 1058.83 89.046 1058.57 88.578L1053.03 79.83C1052.88 79.578 1052.73 79.374 1052.56 79.218C1052.4 79.05 1052.23 78.918 1052.04 78.822C1051.86 78.714 1051.65 78.642 1051.41 78.606C1051.18 78.57 1050.91 78.552 1050.61 78.552H1047.72V90H1042.87V63.972H1047.72V74.88H1050.16C1050.66 74.88 1051.08 74.796 1051.44 74.628C1051.8 74.46 1052.14 74.148 1052.45 73.692L1058.16 65.268C1058.4 64.884 1058.68 64.572 1059 64.332C1059.33 64.092 1059.72 63.972 1060.17 63.972H1064.31L1057.24 74.412C1056.94 74.868 1056.59 75.246 1056.19 75.546C1055.8 75.846 1055.36 76.08 1054.88 76.248C1055.6 76.452 1056.21 76.776 1056.7 77.22C1057.2 77.652 1057.68 78.252 1058.14 79.02L1064.96 90ZM1071.37 85.212C1071.87 85.824 1072.42 86.256 1073.01 86.508C1073.61 86.76 1074.25 86.886 1074.95 86.886C1075.62 86.886 1076.23 86.76 1076.77 86.508C1077.31 86.256 1077.76 85.872 1078.14 85.356C1078.52 84.84 1078.81 84.192 1079.02 83.412C1079.22 82.62 1079.32 81.69 1079.32 80.622C1079.32 79.542 1079.23 78.63 1079.05 77.886C1078.89 77.13 1078.64 76.518 1078.32 76.05C1077.99 75.582 1077.6 75.24 1077.13 75.024C1076.67 74.808 1076.15 74.7 1075.56 74.7C1074.64 74.7 1073.85 74.898 1073.2 75.294C1072.56 75.678 1071.94 76.224 1071.37 76.932V85.212ZM1071.13 74.052C1071.89 73.2 1072.75 72.51 1073.71 71.982C1074.67 71.454 1075.8 71.19 1077.09 71.19C1078.1 71.19 1079.02 71.4 1079.85 71.82C1080.69 72.24 1081.41 72.852 1082.01 73.656C1082.62 74.448 1083.09 75.432 1083.41 76.608C1083.75 77.772 1083.91 79.11 1083.91 80.622C1083.91 82.002 1083.73 83.28 1083.36 84.456C1082.98 85.632 1082.45 86.652 1081.75 87.516C1081.07 88.38 1080.24 89.058 1079.25 89.55C1078.28 90.03 1077.19 90.27 1075.98 90.27C1074.94 90.27 1074.06 90.114 1073.33 89.802C1072.6 89.478 1071.94 89.034 1071.37 88.47V96.03H1066.92V71.532H1069.64C1070.22 71.532 1070.59 71.802 1070.77 72.342L1071.13 74.052ZM1094.89 86.814C1095.9 86.814 1096.65 86.562 1097.14 86.058C1097.64 85.554 1097.9 84.906 1097.9 84.114C1097.9 83.778 1097.84 83.454 1097.72 83.142C1097.61 82.83 1097.43 82.554 1097.19 82.314C1096.95 82.074 1096.64 81.888 1096.26 81.756C1095.87 81.612 1095.41 81.54 1094.87 81.54H1091.58V86.814H1094.89ZM1094.85 78.372C1096.14 78.372 1097.22 78.528 1098.11 78.84C1099 79.152 1099.72 79.572 1100.27 80.1C1100.82 80.628 1101.22 81.24 1101.46 81.936C1101.71 82.62 1101.84 83.34 1101.84 84.096C1101.84 84.96 1101.68 85.758 1101.37 86.49C1101.07 87.21 1100.62 87.834 1100.02 88.362C1099.43 88.878 1098.71 89.28 1097.84 89.568C1096.99 89.856 1096.01 90 1094.91 90H1087.35V71.532H1091.58V78.372H1094.85ZM1109.65 71.532V90H1105.2V71.532H1109.65ZM1135.43 71.496V90H1131.42V79.704C1131.42 79.284 1131.44 78.81 1131.47 78.282C1131.52 77.754 1131.59 77.262 1131.69 76.806L1126.25 86.778C1125.99 87.294 1125.57 87.552 1124.99 87.552H1124.53C1123.95 87.552 1123.53 87.294 1123.27 86.778L1117.76 76.752C1117.84 77.208 1117.91 77.706 1117.96 78.246C1118.02 78.786 1118.05 79.272 1118.05 79.704V90H1114.03V71.496H1117.7C1118.02 71.496 1118.32 71.562 1118.62 71.694C1118.93 71.826 1119.19 72.09 1119.4 72.486L1123.75 80.262C1123.94 80.622 1124.12 81.006 1124.29 81.414C1124.46 81.81 1124.62 82.212 1124.76 82.62C1124.9 82.212 1125.05 81.804 1125.21 81.396C1125.38 80.988 1125.56 80.61 1125.75 80.262L1130.07 72.486C1130.29 72.078 1130.54 71.814 1130.84 71.694C1131.14 71.562 1131.45 71.496 1131.76 71.496H1135.43ZM1155.68 74.826H1149.09V90H1144.64V74.826H1138.07V71.532H1155.68V74.826ZM1167.94 82.116C1166.66 82.176 1165.58 82.29 1164.7 82.458C1163.83 82.614 1163.13 82.818 1162.6 83.07C1162.07 83.322 1161.69 83.616 1161.46 83.952C1161.24 84.288 1161.12 84.654 1161.12 85.05C1161.12 85.83 1161.35 86.388 1161.81 86.724C1162.27 87.06 1162.88 87.228 1163.62 87.228C1164.54 87.228 1165.32 87.066 1165.98 86.742C1166.65 86.406 1167.31 85.902 1167.94 85.23V82.116ZM1157.76 74.106C1159.88 72.162 1162.44 71.19 1165.42 71.19C1166.5 71.19 1167.47 71.37 1168.32 71.73C1169.17 72.078 1169.89 72.57 1170.48 73.206C1171.07 73.83 1171.51 74.58 1171.81 75.456C1172.13 76.332 1172.28 77.292 1172.28 78.336V90H1170.27C1169.85 90 1169.52 89.94 1169.29 89.82C1169.07 89.688 1168.89 89.43 1168.75 89.046L1168.36 87.714C1167.89 88.134 1167.43 88.506 1166.99 88.83C1166.55 89.142 1166.08 89.406 1165.6 89.622C1165.12 89.838 1164.61 90 1164.06 90.108C1163.52 90.228 1162.92 90.288 1162.26 90.288C1161.48 90.288 1160.76 90.186 1160.1 89.982C1159.44 89.766 1158.87 89.448 1158.39 89.028C1157.91 88.608 1157.53 88.086 1157.27 87.462C1157.01 86.838 1156.87 86.112 1156.87 85.284C1156.87 84.816 1156.95 84.354 1157.11 83.898C1157.26 83.43 1157.52 82.986 1157.86 82.566C1158.22 82.146 1158.69 81.75 1159.25 81.378C1159.81 81.006 1160.5 80.682 1161.32 80.406C1162.15 80.13 1163.11 79.908 1164.2 79.74C1165.29 79.56 1166.54 79.452 1167.94 79.416V78.336C1167.94 77.1 1167.68 76.188 1167.15 75.6C1166.62 75 1165.86 74.7 1164.87 74.7C1164.15 74.7 1163.55 74.784 1163.07 74.952C1162.6 75.12 1162.18 75.312 1161.82 75.528C1161.46 75.732 1161.13 75.918 1160.83 76.086C1160.55 76.254 1160.22 76.338 1159.86 76.338C1159.55 76.338 1159.29 76.26 1159.07 76.104C1158.85 75.936 1158.68 75.744 1158.55 75.528L1157.76 74.106ZM1184.01 86.958C1184.95 86.958 1185.69 86.73 1186.23 86.274C1186.78 85.818 1187.05 85.194 1187.05 84.402C1187.05 84.066 1187.01 83.754 1186.91 83.466C1186.83 83.166 1186.67 82.908 1186.44 82.692C1186.21 82.476 1185.9 82.308 1185.51 82.188C1185.12 82.068 1184.63 82.008 1184.03 82.008H1180.7V86.958H1184.01ZM1180.7 74.43V79.272H1183.62C1184.05 79.272 1184.44 79.212 1184.8 79.092C1185.16 78.96 1185.48 78.78 1185.74 78.552C1186 78.312 1186.21 78.036 1186.35 77.724C1186.5 77.4 1186.57 77.046 1186.57 76.662C1186.57 76.386 1186.52 76.116 1186.42 75.852C1186.33 75.576 1186.17 75.336 1185.94 75.132C1185.71 74.916 1185.4 74.748 1185.02 74.628C1184.65 74.496 1184.18 74.43 1183.62 74.43H1180.7ZM1183.74 71.532C1184.91 71.532 1185.91 71.646 1186.75 71.874C1187.6 72.102 1188.3 72.414 1188.85 72.81C1189.41 73.206 1189.81 73.68 1190.08 74.232C1190.34 74.772 1190.47 75.36 1190.47 75.996C1190.47 76.392 1190.42 76.806 1190.31 77.238C1190.22 77.658 1190.04 78.066 1189.77 78.462C1189.52 78.858 1189.17 79.218 1188.73 79.542C1188.28 79.866 1187.72 80.118 1187.04 80.298C1187.65 80.43 1188.21 80.616 1188.71 80.856C1189.21 81.084 1189.65 81.378 1190.01 81.738C1190.37 82.086 1190.64 82.5 1190.83 82.98C1191.04 83.448 1191.14 83.976 1191.14 84.564C1191.14 85.5 1190.94 86.31 1190.55 86.994C1190.16 87.678 1189.64 88.242 1188.98 88.686C1188.33 89.13 1187.58 89.46 1186.71 89.676C1185.86 89.892 1184.97 90 1184.03 90H1176.47V71.532H1183.74ZM1199.02 85.212C1199.52 85.824 1200.07 86.256 1200.66 86.508C1201.26 86.76 1201.91 86.886 1202.6 86.886C1203.27 86.886 1203.88 86.76 1204.42 86.508C1204.96 86.256 1205.42 85.872 1205.79 85.356C1206.17 84.84 1206.47 84.192 1206.67 83.412C1206.87 82.62 1206.98 81.69 1206.98 80.622C1206.98 79.542 1206.89 78.63 1206.71 77.886C1206.54 77.13 1206.29 76.518 1205.97 76.05C1205.64 75.582 1205.25 75.24 1204.78 75.024C1204.32 74.808 1203.8 74.7 1203.21 74.7C1202.29 74.7 1201.5 74.898 1200.86 75.294C1200.21 75.678 1199.6 76.224 1199.02 76.932V85.212ZM1198.79 74.052C1199.54 73.2 1200.4 72.51 1201.36 71.982C1202.32 71.454 1203.45 71.19 1204.74 71.19C1205.75 71.19 1206.67 71.4 1207.5 71.82C1208.34 72.24 1209.06 72.852 1209.66 73.656C1210.27 74.448 1210.74 75.432 1211.06 76.608C1211.4 77.772 1211.57 79.11 1211.57 80.622C1211.57 82.002 1211.38 83.28 1211.01 84.456C1210.64 85.632 1210.1 86.652 1209.41 87.516C1208.72 88.38 1207.89 89.058 1206.9 89.55C1205.93 90.03 1204.84 90.27 1203.63 90.27C1202.6 90.27 1201.71 90.114 1200.98 89.802C1200.25 89.478 1199.6 89.034 1199.02 88.47V96.03H1194.57V71.532H1197.29C1197.87 71.532 1198.25 71.802 1198.43 72.342L1198.79 74.052Z" fill="#FAFAFA"/>
</svg>
