<svg width="65" height="65" viewBox="0 0 65 65" fill="none" xmlns="http://www.w3.org/2000/svg">
<g clip-path="url(#clip0_2811_1123)">
<path d="M31.3019 49.9476C34.3671 49.9476 36.861 47.4537 36.861 44.389V9.67274C36.861 8.18353 36.4385 6.74191 35.6386 5.49073C35.6342 5.48379 35.6297 5.47684 35.6252 5.4699C35.6193 5.46048 35.6133 5.45106 35.6074 5.44213C35.5994 5.43023 35.592 5.41882 35.5841 5.40692C35.5801 5.40097 35.5761 5.39452 35.5722 5.38857C35.5598 5.37022 35.5474 5.35138 35.535 5.33303L33.1487 1.79124C32.7336 1.17581 32.0438 0.808838 31.3019 0.808838C30.56 0.808838 29.8702 1.17631 29.4556 1.79124L27.0688 5.33303C27.0569 5.35088 27.045 5.36874 27.0336 5.38659C27.0271 5.39601 27.0207 5.40593 27.0142 5.41585C27.0098 5.42279 27.0048 5.42973 27.0004 5.43717C26.9919 5.45007 26.983 5.46346 26.9746 5.47684C26.9736 5.47883 26.9721 5.48081 26.9706 5.4828C26.1672 6.73596 25.7432 8.18105 25.7432 9.67324V44.389C25.7432 47.4537 28.2372 49.9476 31.3019 49.9476ZM28.3056 10.2297H34.2982V39.4829H28.3056V10.2297ZM34.2982 44.389C34.2982 46.0408 32.9543 47.3853 31.3019 47.3853C29.65 47.3853 28.3056 46.0408 28.3056 44.389V42.0453H34.2982V44.389ZM31.3019 3.63652L33.41 6.76472C33.4209 6.78109 33.4318 6.79745 33.4427 6.81332C33.4452 6.81779 33.4482 6.82175 33.4507 6.82622C33.4601 6.8406 33.4695 6.85498 33.4789 6.86986C33.4799 6.87085 33.4804 6.87234 33.4814 6.87383C33.6421 7.12575 33.7804 7.39156 33.8955 7.66728H28.7083C28.8313 7.3737 28.98 7.09103 29.1546 6.82473C29.1566 6.82126 29.1591 6.81779 29.1615 6.81432C29.172 6.79795 29.1829 6.78109 29.1943 6.76472L31.3019 3.63652Z" fill="#333333"/>
<path d="M43.8692 52.7733H20.2773C20.1786 52.7733 20.0978 52.693 20.0978 52.5943V2.56832C20.0978 1.152 18.9458 0 17.5294 0H10.4394C9.02309 0 7.87109 1.152 7.87109 2.56832V59.79C7.87109 62.6628 10.2083 65 13.0811 65H43.8692C45.2856 65 46.4376 63.848 46.4376 62.4317V55.3416C46.4376 53.9253 45.2856 52.7733 43.8692 52.7733V52.7733ZM43.8692 62.4376H13.0816C11.6217 62.4376 10.434 61.2494 10.434 59.79V54.0548L10.4394 2.56237L17.5354 2.56832V6.70868H15.8067C15.099 6.70868 14.5252 7.28245 14.5252 7.99011C14.5252 8.69778 15.099 9.27155 15.8067 9.27155H17.5354V16.5312H15.8067C15.099 16.5312 14.5252 17.1049 14.5252 17.8126C14.5252 18.5203 15.099 19.094 15.8067 19.094H17.5354V26.3537H15.8067C15.099 26.3537 14.5252 26.9275 14.5252 27.6351C14.5252 28.3428 15.099 28.9165 15.8067 28.9165H17.5354V36.1767H15.8067C15.099 36.1767 14.5252 36.7505 14.5252 37.4576C14.5252 38.1653 15.099 38.7391 15.8067 38.7391H17.5354V45.9992H15.8067C15.099 45.9992 14.5252 46.573 14.5252 47.2801C14.5252 47.9878 15.099 48.5616 15.8067 48.5616H17.5354V52.5938C17.5354 54.1058 18.7653 55.3357 20.2773 55.3357L22.5119 55.3362V56.264C22.5119 56.9717 23.0856 57.5455 23.7928 57.5455C24.5005 57.5455 25.0742 56.9717 25.0742 56.264V55.3367L29.8925 55.3382V56.264C29.8925 56.9717 30.4663 57.5455 31.1739 57.5455C31.8811 57.5455 32.4549 56.9717 32.4549 56.264V55.3387L37.2731 55.3397V56.264C37.2731 56.9717 37.8469 57.5455 38.5546 57.5455C39.2622 57.5455 39.836 56.9717 39.836 56.264V55.3407L43.8747 55.3416L43.8692 62.4376Z" fill="#333333"/>
<path d="M31.3128 19.0028H31.3019C30.5992 19.0028 30.0269 19.5696 30.0209 20.2733L29.8925 35.6153C29.8866 36.323 30.4559 36.9012 31.163 36.9077H31.1739C31.8766 36.9077 32.4494 36.3408 32.4554 35.6371L32.5833 20.2947C32.5893 19.587 32.0205 19.0088 31.3128 19.0028Z" fill="#333333"/>
<path d="M31.1739 16.4434C31.8816 16.4434 32.4554 15.8697 32.4554 15.162V15.159C32.4554 14.4514 31.8816 13.8796 31.1739 13.8796C30.4663 13.8796 29.8925 14.4543 29.8925 15.162C29.8925 15.8697 30.4663 16.4434 31.1739 16.4434Z" fill="#333333"/>
<path d="M49.1919 35.0896V4.44036H53.4453C54.1525 4.44036 54.7262 3.86659 54.7262 3.15893C54.7262 2.45176 54.1525 1.87799 53.4453 1.87799H43.9387C43.2315 1.87799 42.6577 2.45176 42.6577 3.15893V35.0891C41.7036 35.2458 40.9736 36.076 40.9736 37.0733V45.4259C40.9736 47.9193 43.0019 49.9476 45.4953 49.9476H54.0473C55.7691 49.9476 57.1696 48.5466 57.1696 46.8248V43.7323C57.1701 39.1848 53.6506 35.4437 49.1919 35.0896V35.0896ZM52.7798 40.5327C52.7798 41.5221 51.9749 42.3264 50.9856 42.3264C49.9967 42.3264 49.1919 41.5221 49.1919 40.5327C49.1919 39.5439 49.9967 38.739 50.9856 38.739C51.9749 38.739 52.7798 39.5439 52.7798 40.5327V40.5327ZM46.6295 4.44036V35.0623H45.2201V4.44036H46.6295ZM54.6072 46.8248C54.6072 47.1338 54.3563 47.3852 54.0473 47.3852H45.4953C44.4152 47.3852 43.5365 46.5065 43.5365 45.4259V37.6247H47.7448C47.052 38.3968 46.6295 39.4164 46.6295 40.5327C46.6295 42.9349 48.5839 44.8888 50.9856 44.8888C52.4669 44.8888 53.7775 44.1459 54.565 43.0133C54.5928 43.2493 54.6072 43.4894 54.6072 43.7323V46.8248Z" fill="#333333"/>
</g>
<defs>
<clipPath id="clip0_2811_1123">
<rect width="65" height="65" fill="white"/>
</clipPath>
</defs>
</svg>
