<svg width="62" height="60" viewBox="0 0 62 60" fill="none" xmlns="http://www.w3.org/2000/svg">
<path d="M58.8516 52.765H54.0078V21.6737L57.0352 23.4216C57.2225 23.5299 57.4315 23.5838 57.6406 23.5838C57.8497 23.5838 58.0588 23.5299 58.2461 23.4216C58.6207 23.2054 58.8516 22.8057 58.8516 22.3729V17.5291C58.8516 17.0968 58.6207 16.6971 58.2461 16.4804L31.6059 1.09963C31.2308 0.883457 30.7696 0.883457 30.395 1.09963L14.2413 10.4257C13.6623 10.7602 13.4636 11.5009 13.7981 12.0799C14.1325 12.6594 14.8732 12.8575 15.4522 12.5231L31.0005 3.54657L56.4297 18.2282V20.2755L31.6059 5.94338C31.2308 5.72721 30.7696 5.72721 30.395 5.94338L5.57079 20.2755V18.2282L8.22018 16.699C8.79916 16.3645 8.99783 15.6238 8.66341 15.0448C8.32898 14.4654 7.58823 14.2672 7.00925 14.6016L3.75438 16.4804C3.37975 16.6971 3.14891 17.0968 3.14891 17.5291V22.3729C3.14891 22.8057 3.37975 23.2054 3.75438 23.4216C4.12901 23.6382 4.59068 23.6382 4.96532 23.4216L7.99266 21.6737V52.765H3.14844C1.41244 52.765 0 54.1775 0 55.9135V57.851C0 58.5198 0.542084 59.0619 1.21094 59.0619H47.8519C48.5203 59.0619 49.0628 58.5198 49.0628 57.851C49.0628 57.1821 48.5203 56.64 47.8519 56.64H2.42188V55.9135C2.42188 55.5199 2.75441 55.1869 3.14844 55.1869H58.8516C59.2456 55.1869 59.5781 55.5199 59.5781 55.9135V56.64H56.2026C55.5343 56.64 54.9917 57.1821 54.9917 57.851C54.9917 58.5198 55.5343 59.0619 56.2026 59.0619H60.7891C61.4579 59.0619 62 58.5198 62 57.851V55.9135C62 54.1775 60.5876 52.765 58.8516 52.765ZM49.1641 25.1561H51.5859V52.765H49.1641V25.1561ZM51.5859 22.7343H39.4766V13.2842L51.5859 20.2755V22.7343ZM31.0005 8.39032L37.0552 11.886V22.7343H24.9458V11.8864L31.0005 8.39032ZM22.5239 13.2842V22.7343H10.4145V20.2755L22.5239 13.2842ZM10.4145 25.1561H12.8364V52.765H10.4145V25.1561ZM15.2583 25.1561H46.7422V52.765H45.2891V27.8202C45.2891 27.1513 44.747 26.6093 44.0781 26.6093H35.3594C34.691 26.6093 34.1484 27.1513 34.1484 27.8202V35.3275H26.6411C25.9722 35.3275 25.4302 35.8701 25.4302 36.5385V44.0463H17.9223C17.2535 44.0463 16.7114 44.5884 16.7114 45.2572V52.765H15.2583V25.1561ZM36.5703 44.0463V37.7499H38.5078C38.5078 38.4187 39.0504 38.9608 39.7188 38.9608C40.3876 38.9608 40.9297 38.4187 40.9297 37.7499H42.8672V44.0463H36.5703ZM27.852 44.0463V37.7499H29.7895C29.7895 38.4187 30.3316 38.9608 31.0005 38.9608C31.6689 38.9608 32.2109 38.4187 32.2109 37.7499H34.1484V44.0463H27.852ZM39.7192 30.2421C40.3876 30.2421 40.9302 29.6995 40.9302 29.0311H42.8672V35.3275H36.5703V29.0311H38.5083C38.5083 29.6995 39.0504 30.2421 39.7192 30.2421ZM19.1333 46.4682H21.0708C21.0708 47.137 21.6129 47.6791 22.2817 47.6791C22.9506 47.6791 23.4927 47.137 23.4927 46.4682H25.4302V52.765H19.1333V46.4682ZM27.852 46.4682H29.7895C29.7895 47.137 30.3316 47.6791 31.0005 47.6791C31.6689 47.6791 32.2109 47.137 32.2109 46.4682H34.1484V52.765H27.852V46.4682ZM36.5703 52.765V46.4682H38.5078C38.5078 47.137 39.0504 47.6791 39.7188 47.6791C40.3876 47.6791 40.9297 47.137 40.9297 46.4682H42.8672V52.765H36.5703Z" fill="#087792"/>
</svg>
