<svg width="15" height="17" viewBox="0 0 15 17" fill="none" xmlns="http://www.w3.org/2000/svg">
<path d="M1.28348 15.1429V12.5714H3.85491V15.1429H1.28348ZM4.42634 15.1429V12.5714H7.28348V15.1429H4.42634ZM1.28348 12V9.14286H3.85491V12H1.28348ZM4.42634 12V9.14286H7.28348V12H4.42634ZM1.28348 8.57143V6H3.85491V8.57143H1.28348ZM7.85491 15.1429V12.5714H10.7121V15.1429H7.85491ZM4.42634 8.57143V6H7.28348V8.57143H4.42634ZM11.2835 15.1429V12.5714H13.8549V15.1429H11.2835ZM7.85491 12V9.14286H10.7121V12H7.85491ZM4.71205 4.28571C4.71205 4.4375 4.57812 4.57143 4.42634 4.57143H3.85491C3.70313 4.57143 3.5692 4.4375 3.5692 4.28571V1.71428C3.5692 1.5625 3.70313 1.42857 3.85491 1.42857H4.42634C4.57812 1.42857 4.71205 1.5625 4.71205 1.71428V4.28571ZM11.2835 12V9.14286H13.8549V12H11.2835ZM7.85491 8.57143V6H10.7121V8.57143H7.85491ZM11.2835 8.57143V6H13.8549V8.57143H11.2835ZM11.5692 4.28571C11.5692 4.4375 11.4353 4.57143 11.2835 4.57143H10.7121C10.5603 4.57143 10.4263 4.4375 10.4263 4.28571V1.71428C10.4263 1.5625 10.5603 1.42857 10.7121 1.42857H11.2835C11.4353 1.42857 11.5692 1.5625 11.5692 1.71428V4.28571ZM14.9978 3.71428C14.9978 3.08928 14.4799 2.57143 13.8549 2.57143H12.7121V1.71428C12.7121 0.928571 12.0692 0.285713 11.2835 0.285713H10.7121C9.92634 0.285713 9.28348 0.928571 9.28348 1.71428V2.57143H5.85491V1.71428C5.85491 0.928571 5.21205 0.285713 4.42634 0.285713H3.85491C3.0692 0.285713 2.42634 0.928571 2.42634 1.71428V2.57143H1.28348C0.658482 2.57143 0.140625 3.08928 0.140625 3.71428V15.1429C0.140625 15.7679 0.658482 16.2857 1.28348 16.2857H13.8549C14.4799 16.2857 14.9978 15.7679 14.9978 15.1429V3.71428Z" fill="#333333"/>
</svg>
